<?xml version="1.0" standalone="no"?>
<!DOCTYPE svg PUBLIC "-//W3C//DTD SVG 1.1//EN" "http://www.w3.org/Graphics/SVG/1.1/DTD/svg11.dtd" >
<svg xmlns="http://www.w3.org/2000/svg">
<metadata>
This is a custom SVG webfont generated by Font Squirrel.
Designer    : Dimitri Castrique
Foundry     : Dimitri Castrique
Foundry URL : FREE
</metadata>
<defs>
<font id="webfont2POzaTjH" horiz-adv-x="454" >
<font-face units-per-em="1000" ascent="800" descent="-200" />
<missing-glyph horiz-adv-x="227" />
<glyph unicode=" "  horiz-adv-x="227" />
<glyph unicode="&#x09;" horiz-adv-x="227" />
<glyph unicode="&#xa0;" horiz-adv-x="227" />
<glyph unicode="!" horiz-adv-x="203" d="M64 202l-9 5q-3 74 -4 96q-10 218 -13 325q3 29 112 29q12 -31 12 -63q-1 -54 -13 -270l-5 -80q-5 -42 -80 -42zM99 113q34 0 45 -13.5t10 -44.5t-14 -47.5t-47 -16.5q-30 0 -43 15t-13 47q0 60 62 60z" />
<glyph unicode="&#x22;" horiz-adv-x="293" d="M104 516l-1 -1q-3 -5 -28 -9.5t-38 -4.5q0 29 -5 92q-7 110 -7 116q30 17 66 17q11 0 17 -2q19 -9 19 -42v-8q-2 -42 -9 -93.5t-14 -64.5zM246 516l-1 -1q-3 -5 -28 -9.5t-38 -4.5q0 29 -5 92q-7 110 -7 116q28 17 66 17q11 0 17 -2q19 -9 19 -42v-8q-2 -42 -9 -93.5 t-14 -64.5z" />
<glyph unicode="#" horiz-adv-x="444" d="M85 200h-60q0 19 1 24q-5 8 -5 12q0 3 16 35h57q1 9 3.5 27t4.5 28t4 26.5t3 26.5h-66v21q-3 8 -3 13q0 2 6.5 17.5t9.5 19.5h62q1 7 1 22q1 21 3 31.5t9.5 24.5t26.5 20t49 6q8 -8 8 -16q0 -24 -9 -64l-5 -24h72q1 6 1 19q1 20 2.5 31t9 25.5t26.5 21.5t50 7q7 -7 7 -15 q0 -22 -8 -60q-1 -5 -2.5 -14l-2.5 -15h56v-23q4 -7 4 -14q0 -2 -6.5 -15.5t-10.5 -18.5h-53q-3 -29 -8 -55q-2 -10 -4 -26.5t-3 -26.5h65v-22q4 -5 4 -13q0 -1 -6 -17t-9 -19h-64q-1 -7 -1 -27q-1 -23 -3 -34.5t-10 -27.5t-26 -23t-48 -7q-9 6 -9 16q0 21 11 78l5 25h-74 q-1 -3 -1.5 -11t-0.5 -11q-9 -96 -43 -96q-13 0 -41 7q-2 0 -7.5 0.5t-6.5 0.5l9.5 53t9.5 57zM263 379h-73q-1 -10 -3.5 -28.5t-3.5 -26.5l-6 -53h73q8 77 13 108z" />
<glyph unicode="$" d="M334 280q62 -52 62 -126q0 -57 -37 -98.5t-100 -57.5l-9 -79q0 -22 -21 -29t-72 -7l10 110q-74 6 -105 31q-16 14 -16 22q0 12 8 34.5t18 35.5q54 -39 121 -39q90 0 90 71q0 26 -14 48.5t-50 51.5q-18 18 -31 29q-9 9 -19 17q-1 1 -1.5 1t-1.5 1h1q-48 39 -67 60 q-47 52 -47 101q0 46 34 84t97 52l9 81q0 22 22 29t71 7l-10 -115q81 -7 103 -38q0 -23 -19 -51q-8 -5 -19 -5q-12 0 -20 4q-35 14 -72 14q-40 0 -62 -16.5t-22 -47.5v-3q5 -26 33 -56q16 -16 75 -65l17 -14q32 -24 44 -37z" />
<glyph unicode="%" horiz-adv-x="710" d="M374 165q0 80 38.5 129.5t110.5 49.5q67 0 103 -41t36 -136q0 -83 -37 -130.5t-107 -47.5t-107 39t-37 137zM38 480q0 80 38 129t110 49q68 0 104 -40.5t36 -135.5q0 -83 -37 -131t-108 -48q-69 0 -106 40t-37 137zM165 -29h-3q-8 3 -26 15t-19 21q68 124 386 646 q13 18 22 18t23 -8q25 -16 27 -30l-382 -636h1q-16 -26 -29 -26zM464 164q0 -111 54 -111q24 0 39 28.5t15 84.5q0 111 -52 111q-56 0 -56 -113zM130 479q0 -110 52 -110q55 0 55 113q0 111 -53 111q-25 0 -39.5 -29t-14.5 -85z" />
<glyph unicode="&#x26;" horiz-adv-x="590" d="M418 429l8 6q23 6 75 9h7h24.5t19 -8.5t7.5 -26.5q0 -11 -9 -18t-35 -20h-16v-11q0 -102 -64 -210l27 -26q78 -73 86 -78q-5 -28 -24 -40.5t-41 -12.5q-16 0 -24 5t-29 26q-6 5 -19.5 19l-26.5 27q-69 -77 -173 -77q-92 0 -141.5 49t-49.5 128q0 100 113 182 q-66 90 -66 169q0 66 46.5 105t121.5 39q51 0 82 -12.5t31 -32.5q0 -7 -8 -27t-18 -34q-42 31 -85 31q-33 0 -53.5 -18.5t-20.5 -55.5q0 -42 47.5 -108.5t127.5 -157.5l10 -10t9 -9.5l9 -10.5q54 113 54 187q0 11 -2 22zM212 74q59 0 110 59q-88 90 -140 158 q-63 -50 -63 -120q0 -42 25 -69.5t68 -27.5z" />
<glyph unicode="'" horiz-adv-x="150" d="M103 516l-1 -1q-3 -5 -28 -9.5t-38 -4.5q0 29 -5 92q-7 110 -7 116q30 17 66 17q11 0 17 -2q19 -9 19 -42v-8q-2 -42 -9 -93.5t-14 -64.5z" />
<glyph unicode="(" horiz-adv-x="322" d="M151 293q0 -137 38 -248t97 -170q-13 -59 -56 -59q-21 10 -48.5 44.5t-57.5 90.5t-50.5 144.5t-20.5 187.5q0 94 18.5 177.5t47.5 140.5t58.5 95t57.5 58q44 -9 51 -58q-135 -156 -135 -403z" />
<glyph unicode=")" horiz-adv-x="322" d="M161 294q0 129 -36 234.5t-98 170.5q12 54 56 54q20 -10 47.5 -43t57.5 -87t50.5 -139.5t20.5 -181.5q0 -180 -58.5 -311t-122.5 -176q-23 4 -36 21.5t-15 41.5q60 69 97 174.5t37 236.5v5z" />
<glyph unicode="*" horiz-adv-x="450" d="M186 457v1q9 11 20 9.5t27 -19.5q5 7 31 20l100 -104q14 -16 -9 -33t-52 -23l-68 122q-3 6 -3 11l-63 -118q-10 -15 -25 -11.5t-29 16t-24 28.5zM202 516l1 -1q3 -3 9 -7l-18 139q-1 12 8 17t26 5q28 0 52 -12l-16 -135q-3 -14 -11.5 -17.5t-39.5 1.5q9 -11 -6 -36 l-145 27q-14 3 -14.5 17.5t8 31t19.5 29.5zM381 564q22 11 33.5 -14.5t7.5 -54.5l-139 -26q-15 -3 -22.5 3.5t-9.5 29.5z" />
<glyph unicode="+" horiz-adv-x="499" d="M293 100q0 -11 -2.5 -19t-11 -13t-13.5 -7.5t-20 -3.5t-19.5 -1h-21.5v174h-164q0 41 7 58.5t26 17.5h131v77q0 31 -2 71q12 13 71 15q19 -9 19 -40v-123h164q0 -42 -6.5 -59t-27.5 -17h-130v-130z" />
<glyph unicode="," horiz-adv-x="193" d="M95 117q36 0 49 -13.5t11 -49.5q0 -10 -1 -14q-4 -40 -30.5 -81.5t-52.5 -60.5h1q-10 -8 -31 -8q-22 0 -41 13q1 1 4 7t4 7q11 17 13 20.5l10 17.5t10 20.5t5 18t4 22.5q-7 4 -7 8q-5 16 -7 20q-8 29 -8 32q8 18 26.5 29.5t40.5 11.5z" />
<glyph unicode="-" horiz-adv-x="292" d="M220 226h1q-101 -16 -162 -16q-16 0 -32 6q7 75 34 76q64 6 172 20q12 -1 31 -11q-5 -70 -44 -75z" />
<glyph unicode="." horiz-adv-x="193" d="M28 54q0 62 68 62q37 0 49.5 -14t11.5 -46t-15.5 -49t-52.5 -17q-34 0 -47.5 15.5t-13.5 48.5z" />
<glyph unicode="/" horiz-adv-x="360" d="M324 702l10 -6l-108 -371l-84 -288q-17 -61 -38 -81q-9 -8 -25 -10t-65 -2l215 729q4 14 10.5 19.5t24.5 7.5q25 3 60 2z" />
<glyph unicode="0" d="M23 296q0 200 94 271q45 35 108 35q196 0 196 -293q0 -323 -202 -323q-196 0 -196 310zM132 293q0 -229 90 -229q91 0 91 249q0 212 -87 212q-43 0 -68.5 -56.5t-25.5 -175.5z" />
<glyph unicode="1" horiz-adv-x="393" d="M308 590q-3 -155 -5 -508l27 -9q38 -12 38 -20q0 -28 -2.5 -37t-12.5 -13q-17 -3 -28 -3q-2 0 -5.5 -0.5t-4.5 -0.5q-116 -2 -192 -2v25q0 4 -0.5 13t-0.5 14t3 9t12.5 7.5t14.5 5t20 6.5q2 1 9.5 3t12.5 4q3 159 6 417q-92 -24 -127 -32q-13 24 -14 39q7 13 28 34 q97 36 190 61q20 -6 31 -13z" />
<glyph unicode="2" d="M82 479l-17 -7q-14 0 -21 21t-7 36q18 32 70.5 52.5t116.5 20.5q165 0 165 -155q0 -10 -2 -26q-8 -65 -66 -146q-8 -11 -67 -84q-44 -51 -88 -109q41 -1 128 -1q11 0 80 3q14 1 43 1q-7 -78 -38 -81q-60 -5 -107 -5q-173 0 -236 4q-7 17 -8 26q4 28 22 54l96 119 q65 79 98 133.5t33 99.5q0 82 -76 82q-63 0 -120 -38h1z" />
<glyph unicode="3" d="M352 390q-26 -40 -74 -73q62 -14 95.5 -53.5t33.5 -100.5q0 -107 -70 -167t-178 -60q-76 0 -105 25h1q-18 16 -18 43q0 17 8 44q52 -31 109 -31q67 0 105.5 41t36.5 103q0 1 -0.5 4t-0.5 5q0 8 -1 11q-10 79 -129 79q-19 0 -45 -3q0 11 -1 13q-2 6 -2 11q5 27 14 39 q131 51 131 131q0 67 -67 67q-62 0 -110 -35q-7 -5 -15 -5q-9 0 -16 10q-9 17 -9 42v5q12 27 60 47t112 20q85 0 121.5 -39.5t36.5 -90.5q0 -44 -23 -82z" />
<glyph unicode="4" d="M245 110q0 6 0.5 16.5t0.5 17.5q-129 0 -203 8q-25 24 -31 58q28 69 104.5 197t120.5 167q23 23 68 31q15 0 38 -5h7l4 -1q0 -15 -0.5 -49.5t-0.5 -50.5v-95q0 -124 -1 -185q36 3 66 3q1 -2 2.5 -6t1.5 -5q4 -8 4 -16q-15 -38 -48 -48q-8 -2 -23 -2h-3v-111 q0 -33 -33 -39q-21 -3 -74 -3v118zM250 352q0 7 0.5 21t0.5 20q0 27 1 55q-77 -101 -132 -227q54 -3 126 -3q2 31 4 113v21z" />
<glyph unicode="5" d="M364 530h1q-46 -11 -198 -13q-16 -83 -23 -138h8q4 0 21.5 -1t29.5 -2q33 -4 46 -7q145 -31 156 -157q0 -3 0.5 -9.5t0.5 -9.5v-18q0 -17 -1 -25v1q-6 -100 -71.5 -157t-170.5 -58q-48 0 -77 10.5t-35 21.5q-8 27 -8 48q0 11 5 28q40 -28 103 -28q64 0 105 44.5t41 112.5 q0 93 -88 117q-41 11 -107 16q-34 3 -62 3q10 79 36 228q1 7 3.5 20l4.5 22.5t3 15.5q125 0 298 8l-4 -58q-2 -12 -17 -15z" />
<glyph unicode="6" d="M22 235q0 42 2 65q11 166 81 255q86 110 215 110q72 0 81 -34q0 -23 -6 -41q-147 8 -209 -75q-45 -59 -59 -160q-1 -3 -1 -8.5t-1 -8.5q-7 -51 -7 -89q0 -93 28.5 -139.5t76.5 -46.5q42 0 69.5 38.5t27.5 107.5q0 97 -63 113h1q-8 2 -14 2q-16 0 -62 -12v28q0 42 26 54 q24 11 57 11q13 0 18 -1h-1q68 -6 101.5 -58.5t33.5 -126.5q0 -106 -50.5 -169t-150.5 -63q-90 0 -141 61.5t-53 186.5z" />
<glyph unicode="7" horiz-adv-x="432" d="M59 -25l1 1q40 105 157 376l73 170q-35 -1 -154 -1q-58 0 -100 14q-4 8 -4 13q0 24 16 63q36 -10 92 -10h272q-15 -47 -19 -62l-1 -3v-2q-23 -73 -141 -356q-65 -148 -90 -224q-15 -1 -33 -0.5t-34 2t-26 6.5t-9 13z" />
<glyph unicode="8" d="M347 309h-1q72 -60 72 -140q0 -78 -52 -128.5t-143 -50.5q-103 0 -150 52t-47 124q0 55 33 101q27 35 83 72q-44 30 -66 55q-33 39 -33 91q0 77 49.5 123.5t129.5 46.5q2 0 7 -0.5t8 -0.5h14q73 -5 111.5 -48t38.5 -107q0 -52 -33 -96q-18 -24 -68 -60q13 -8 30 -21z M223 68q37 0 64 25.5t27 70.5q0 29 -8 46.5t-28 34.5q-24 24 -66 49q-86 -56 -86 -123q0 -48 28 -75.5t69 -27.5zM145 495q0 -38 32 -67q17 -18 56 -42q72 50 72 109q0 39 -22.5 60.5t-56.5 21.5q-33 0 -57 -21t-24 -61z" />
<glyph unicode="9" d="M74 4q44 -1 93 23t83 63q47 70 59 153q6 43 6 93q0 196 -95 196q-47 0 -74 -38t-27 -103q0 -49 17.5 -77.5t46.5 -35.5h-1q16 -2 23 -2q22 0 53 9q2 -14 2 -31q0 -35 -25 -50q-24 -10 -55 -10h-8q-2 0 -5 0.5t-5 0.5q-68 9 -104.5 60.5t-36.5 126.5q0 104 52 165t150 61 q104 0 145.5 -65t43.5 -217q-2 -213 -112 -319q-40 -35 -90 -53.5t-86 -18.5h-9q-45 1 -55 17q-11 22 -11 55q15 -3 25 -3z" />
<glyph unicode=":" horiz-adv-x="193" d="M28 374q0 62 68 62q37 0 49.5 -14t11.5 -46t-15.5 -49t-51.5 -17q-33 0 -47.5 15.5t-14.5 48.5zM28 54q0 62 68 62q37 0 49.5 -14t11.5 -46t-16 -49t-51 -17q-33 0 -47.5 15.5t-14.5 48.5z" />
<glyph unicode=";" horiz-adv-x="193" d="M95 117q36 0 49 -13.5t11 -49.5q0 -10 -1 -14q-4 -40 -30.5 -81.5t-52.5 -60.5h1q-10 -8 -31 -8q-22 0 -41 13q1 1 4 7t4 7q11 17 13 20.5l10 17.5t10 20.5t5 18t4 22.5q-5 3 -7 8q-5 16 -7 20q-8 29 -8 32q8 18 26.5 29.5t40.5 11.5zM28 374q0 62 68 62q37 0 49.5 -14 t11.5 -46t-15.5 -49t-51.5 -17q-34 0 -48 15t-14 49z" />
<glyph unicode="&#x3c;" horiz-adv-x="458" d="M383 548q9 -20 9 -46q-232 -178 -242 -185l243 -178q0 -28 -12 -52q-9 -15 -23 -16q-16 -2 -30 8l-270 201q-19 17 -19 31q0 24 9 34q267 201 280 213q17 12 29 10q17 -4 26 -20z" />
<glyph unicode="=" horiz-adv-x="499" d="M51 323l-10 5q1 40 7.5 55.5t26.5 15.5h383q-1 -41 -7.5 -58.5t-26.5 -17.5h-373zM51 134l-10 5q1 38 8 54.5t26 16.5h383q-1 -41 -7.5 -58.5t-26.5 -17.5h-373z" />
<glyph unicode="&#x3e;" horiz-adv-x="455" d="M70 86q-6 13 -9 47q234 178 243 184l-244 178q0 30 12 52q10 15 25 16q18 2 29 -8h-1l272 -201q18 -16 18 -30q0 -25 -12 -37q-264 -199 -277 -211q-16 -13 -30 -10q-17 4 -26 20z" />
<glyph unicode="?" horiz-adv-x="322" d="M231 365q-47 -61 -47 -102q0 -9 5 -34q2 -14 2 -20q-10 -16 -45 -16q-43 0 -55 42q-5 20 -5 40q0 30 13 59q11 25 40 65l8 12q17 23 23.5 33t14.5 30t8 38q0 30 -16 45.5t-42 15.5q-35 0 -76 -26q-16 2 -26.5 16.5t-10.5 41.5q15 25 55.5 39.5t82.5 14.5q141 0 141 -135 q0 -45 -17.5 -80t-52.5 -79zM150 113q34 0 45 -13.5t10 -44.5t-14 -47.5t-47 -16.5q-30 0 -43 15t-13 47q0 60 62 60z" />
<glyph unicode="@" horiz-adv-x="743" d="M557 -44l7 -2q15 -24 17 -49l-1 -1q-2 0 -2 -1q-39 -24 -46 -27q-98 -32 -185 -32q-144 0 -227.5 92t-79.5 285q0 14 2 30q11 173 107.5 268.5t251.5 95.5q141 0 218 -74.5t77 -221.5q0 -83 -16.5 -144.5t-44.5 -93.5t-59 -47t-67 -15q-43 0 -64 21q-47 -26 -101 -26 q-55 2 -86 27.5t-32 95.5q0 76 54 118q40 31 95 35q1 0 4 0.5t5 0.5h8q12 0 18 -1q0 11 1 16v-1q3 35 -8 55t-38 19q-30 0 -62 -16q-14 -7 -35 -7q-11 13 -15 35q-1 1 -1 3v3v4q0 7 3 11q14 15 50.5 28.5t76.5 13.5q78 0 103 -48q12 -21 15 -55q2 -18 2 -60q-1 -18 -1 -53 q0 -5 -0.5 -15t-0.5 -15q0 -22 -1 -31q0 -45 -2 -77q8 -6 13 -6q21 0 40 18.5t35 70.5t16 130q0 117 -50 172.5t-149 55.5q-128 0 -197.5 -81t-69.5 -243q0 -155 56.5 -223.5t169.5 -68.5q55 2 126 20h-1q51 14 71 11zM320 120q4 -28 23 -33h-1q8 -1 24 1q33 5 42 42 q0 14 1 48t1 48q-46 -2 -68.5 -22.5t-22.5 -70.5q0 -1 0.5 -3.5t0.5 -3.5v-6z" />
<glyph unicode="A" horiz-adv-x="533" d="M414 14l-2 2q-8 23 -22 69l-29 95h-190l-57 -167q-6 -17 -39 -17q-29 0 -69 9q4 27 9 39l92 265q78 213 114 327q7 25 19 25q1 0 5 2q8 2 14 2q10 1 31 1q16 -3 27 -15l72 -221l75 -222h-1q37 -101 49 -142q10 -34 15 -49l1 -2q0 -4 -6 -10q-25 -9 -63 -9q-23 0 -45 18z M217 323l-20 -63h139q-4 12 -14 47l-11 40.5t-10 34.5q-26 79 -33 108l-52 -168z" />
<glyph unicode="B" d="M52 4v627q0 15 1 22q10 5 35 7q47 5 110 5q97 0 144 -41.5t47 -109.5q0 -85 -52 -129l-23 -15q15 -4 29 -13q81 -51 81 -142q0 -109 -62.5 -164.5t-163.5 -55.5q-70 1 -146 9zM158 320v-247q18 -3 43 -3q47 0 76.5 36t29.5 107q0 13 -1 20q-6 49 -33.5 68.5t-74.5 19.5 q-29 0 -40 -1zM158 588v-193q8 1 27 1q4 0 11.5 0.5t9.5 0.5q14 0 32 3h-2q43 22 43 99q0 11 -1 16q-7 75 -84 75q-14 0 -36 -2z" />
<glyph unicode="C" horiz-adv-x="475" d="M307 677q59 0 97 -17.5t48 -36.5q0 -32 -17 -54h-11q-8 -1 -24 7q-1 0 -3.5 1t-3.5 2v-1q-24 10 -44 14q-16 2 -30 2q-13 0 -20 -1q-71 -7 -115.5 -73.5t-44.5 -199.5q0 -246 172 -246q32 0 67 10.5t55 22.5q12 -20 14 -41q-3 -29 -26 -48q-37 -33 -124 -33 q-132 0 -201 75.5t-69 254.5q0 188 88 285q72 77 192 77z" />
<glyph unicode="D" horiz-adv-x="537" d="M67 655l7 2q67 8 140 8q82 0 139.5 -22.5t88.5 -65.5t44.5 -96.5t13.5 -124.5q0 -206 -93 -295q-71 -66 -190 -66q-76 0 -164 11v579q0 50 14 70zM384 356q0 109 -31 161.5t-96 63.5q-26 6 -57 6q-29 0 -40 -1v-508q26 -3 60 -3q164 0 164 281z" />
<glyph unicode="E" horiz-adv-x="393" d="M159 311v-232q19 -2 73 -2q100 0 141 1q-4 -41 -13 -57.5t-29 -21.5q-50 -2 -118 -2q-95 0 -153 6q-5 23 -8 43v474q0 86 -2 126l28 10q19 6 32 7h249q-2 -40 -7.5 -55t-19.5 -20q-29 -5 -95 -5h-78v-192h184q-6 -51 -15.5 -65.5t-33.5 -14.5h-135z" />
<glyph unicode="F" horiz-adv-x="385" d="M104 -3q-31 0 -52 12v525q0 45 -2 109l4.5 3t4.5 2.5t4 1.5l1 1q31 11 49 12h256q-3 -41 -9 -55t-21 -19q-14 -4 -64 -4h-116v-204h188q-3 -50 -13.5 -65t-35.5 -15h-139v-291q-33 -13 -55 -13z" />
<glyph unicode="G" horiz-adv-x="530" d="M317 364q9 13 19 13q46 3 136 3q9 -31 9 -106v-235q-34 -24 -56 -34q-53 -20 -122 -20q-23 0 -33 1q-245 23 -245 335q0 184 92 284q67 71 198 71q59 0 97 -17.5t48 -36.5q0 -22 -20 -49l-6 -1q-12 -2 -22 4h1q-1 0 -6 2.5l-7 3.5q-37 13 -79 13q-182 0 -182 -268 q0 -261 170 -261q46 0 67 16v215q-25 1 -40.5 14t-18.5 53z" />
<glyph unicode="H" horiz-adv-x="544" d="M392 -3l-9 3q-9 24 -9 52v260q-20 -1 -96 -1h-118v-246q0 -35 -15 -56q-7 -8 -24 -10t-70 -2q2 94 2 179v325q0 72 -2 148q16 16 96 16q13 -21 13 -67v-207h214v202q0 36 11 59q9 9 28 11t70 2q-2 -96 -2 -179v-327q0 -69 2 -145q-15 -17 -91 -17z" />
<glyph unicode="I" horiz-adv-x="217" d="M68 -3q-18 0 -18 24v119q0 28 0.5 92.5t0.5 99.5q0 20 -0.5 59.5t-0.5 58.5v92q0 76 -2 94q7 18 27 23.5t63 5.5q12 0 15.5 -15.5t3.5 -54.5v-124q0 -23 -0.5 -69t-0.5 -68q0 -23 0.5 -66.5t0.5 -63.5v-98q0 -22 0.5 -48t0.5 -30v-14q-13 -17 -90 -17z" />
<glyph unicode="J" horiz-adv-x="286" d="M29 11q17 0 24 1t23.5 9.5t24 24t13.5 49.5t4 82v333q0 65 -2 127q9 17 30 22.5t69 5.5q10 -17 10 -65v-409q0 -100 -13.5 -152.5t-56.5 -81.5q-25 -17 -61 -23q-10 -2 -31 -2q-23 0 -40 5q-16 5 -26.5 17t-12.5 24q1 15 11 38q23 -5 34 -5z" />
<glyph unicode="K" horiz-adv-x="464" d="M71 -3l-8 2q-11 16 -11 44v474q0 62 -2 132q18 15 99 15q10 -19 10 -67v-206l54 76l139 196q12 2 27 2q3 0 10 -0.5t11 -0.5h17q33 -2 33 -19q0 -7 -7 -20l-20 -30l-170 -230q59 -60 155 -241q54 -96 64 -106q0 -11 -17 -18q-16 -6 -43 -6h-15q-19 2 -34 16t-22.5 26 t-17.5 34q-57 125 -123 199l-15.5 17.5t-10.5 13t-7 8.5t-8 6v-177q0 -17 0.5 -43t0.5 -36v-45q-10 -16 -89 -16z" />
<glyph unicode="L" horiz-adv-x="387" d="M141 665l9 -3q9 -22 9 -73v-508q35 -3 85 -3q77 0 124 4q2 -22 2 -38q-7 -37 -39 -45q-38 -2 -100 -2q-94 0 -172 6q-1 5 -2 15t-2 14q-2 18 -4 25v482q0 57 -2 105q10 13 29 17t63 4z" />
<glyph unicode="M" horiz-adv-x="674" d="M84 635q0 17 17 25q2 1 12 1q1 0 2.5 0.5t2.5 0.5q26 3 64 3q27 -55 101 -271q1 -2 1 -3t1 -3l-1 1l6 -17l13 -39q1 -5 5 -17.5t6 -19.5q6 -12 6 -16l-1 1l7 -23l15 39q8 24 10 29l9 27t11 30q34 91 41 112l51 143q1 0 2 2t1 3l-1 -1q4 10 12 16q37 7 87 7q6 -19 9 -51 q13 -178 30 -365v1q11 -101 20 -235q-6 -11 -27.5 -14.5t-71.5 -3.5q-14 21 -14 45q0 9 -2 23q-2 20 -2 32q0 6 -1.5 23t-2.5 27q-1 24 -5 71q0 5 -0.5 15.5t-1.5 14.5v-1q-2 14 -2 27q0 1 -3 98q0 6 -0.5 17.5t-0.5 17.5t-0.5 17.5t-1.5 16.5q-29 -88 -53 -152l-54 -150 q-1 -4 -6 -17t-8 -20l1 1q-7 -20 -29 -24q-17 -4 -55 -4l-51 154q-5 12 -13 38.5t-12 37.5l-29 88l-15 49v-24q0 -6 -0.5 -18t-0.5 -19q-3 -96 -3 -100q-16 -172 -20 -227q-1 -3 -1 -11q-4 -20 -10 -32q-15 -12 -41 -12q-29 0 -46 3q-11 0 -11 7q5 88 43 497q7 71 11 129z " />
<glyph unicode="N" horiz-adv-x="567" d="M302 399l33 -61q30 -58 67 -137q-3 67 -3 153v241q0 34 10 55q17 11 30.5 13t63.5 2q-2 -118 -2 -210v-441q-27 -20 -53 -20q-30 0 -48 7q-24 46 -89 157v-1l-53 93l-40 74l-45 95q-2 4 -9 19.5l-10 22.5q0 1 -1 2l-2 2q2 -44 5 -164v-233q0 -32 -9 -53 q-12 -12 -28.5 -15t-67.5 -3q2 114 2 208v420q-12 14 -12 18t2 10q20 12 76 12q17 0 39 -13q14 -29 90 -159l28 -50q3 -6 26 -44z" />
<glyph unicode="O" horiz-adv-x="582" d="M142 324q0 136 38.5 203.5t105.5 67.5t107.5 -65t40.5 -196q0 -266 -145 -266q-67 0 -107 65t-40 191zM290 677q-128 0 -195.5 -88.5t-67.5 -259.5q0 -344 257 -344q131 0 197 91t66 261q0 164 -64 252t-193 88z" />
<glyph unicode="P" horiz-adv-x="433" d="M52 204l-2 426v13q0 3 -0.5 9t-0.5 8q12 9 37 10q46 3 103 3q221 0 221 -208q0 -51 -16 -90.5t-43 -61.5t-54.5 -33.5t-56.5 -15.5q-18 0 -29.5 2t-22.5 13t-11 32q0 5 7.5 9.5t16.5 4.5q38 0 66.5 34.5t28.5 109.5q0 65 -27.5 94.5t-72.5 29.5q-29 0 -39 -1v-432l1 -110 q0 -25 -12 -41q-12 -12 -69 -12h-27q2 114 2 207z" />
<glyph unicode="Q" horiz-adv-x="585" d="M693 -67q38 -10 74 -48l-3 -8q-1 -1 -5 -10.5t-10 -21.5q-33 25 -78 29q-52 4 -151 -19q-112 -27 -157 -22q-36 5 -66 36t-43.5 64.5t-14.5 58.5q-73 10 -121 57.5t-68.5 117.5t-20.5 162q0 171 68 259.5t196 88.5q130 0 193.5 -88t63.5 -252q1 -296 -188 -343 q8 -66 47 -80h-1q20 -5 33 -5q24 0 82 12q4 1 14 2.5t14 2.5q64 11 99 11q27 0 43 -4zM292 67q144 0 144 266q0 259 -143 262q-147 0 -147 -272q0 -125 40 -190.5t106 -65.5z" />
<glyph unicode="R" horiz-adv-x="463" d="M469 21l1 -1q11 -15 -21 -22l-37 -4h-14q-44 4 -75 76q-59 125 -121 197q-2 0 -5 0.5t-5 0.5h-34v-218q0 -25 -11 -40q-8 -9 -23 -11t-54 -2h-20q2 116 2 207v333q0 65 -1 93q0 13 1 20q7 5 29 10h3l3 1q2 1 7 1.5t7 0.5h6q24 2 39 2h48q4 0 13.5 -0.5t13.5 -0.5 q92 -5 137 -51t45 -140q0 -54 -32 -104t-62 -73q28 -40 99 -172q51 -93 61 -103zM235 349q56 21 56 126q0 56 -24.5 86t-65.5 30q-21 0 -43 -2v-244h40q28 0 37 4z" />
<glyph unicode="S" horiz-adv-x="400" d="M214 677q56 0 92.5 -14.5t46.5 -29.5q0 -23 -17 -49q-9 -6 -19 -6q-11 0 -21 5q-34 16 -73 16q-40 0 -62 -19t-22 -55v-13q5 -33 34 -65q29 -31 75 -74l4 -4q28 -25 56 -55q62 -65 62 -144q0 -85 -52 -135t-148 -50q-97 0 -135 36q-15 14 -15 25q0 27 27 69 q56 -46 120 -46q41 0 65.5 25t24.5 69q0 31 -13.5 56.5t-47.5 56.5q-11 13 -36 38q-1 1 -5.5 5t-7.5 7l-12 12q-54 54 -62 64q-46 58 -46 117q0 66 46.5 112t140.5 46z" />
<glyph unicode="T" horiz-adv-x="468" d="M422 582h-141v-442q0 -65 2 -127q-12 -10 -30 -13t-66 -3q-12 21 -12 47v538h-117q-26 0 -50 4q-2 8 -2 14q0 23 9 45q3 8 15 20h14q2 0 7 -0.5t8 -0.5q22 -1 87 -1h312q0 -30 -7 -58q-4 -15 -29 -23z" />
<glyph unicode="U" horiz-adv-x="562" d="M280 66q70 0 101 21l-4 -3q19 98 19 233l1 271q0 33 11 63q14 9 30.5 11.5t63.5 2.5q-2 -104 -2 -191v-157q0 -155 -27 -266q-55 -66 -199 -66q-110 0 -158.5 55.5t-60.5 159.5q-5 55 -5 105v187q0 73 -2 155q14 18 98 18q13 -23 13 -79v-273q0 -64 7 -109 q24 -138 114 -138z" />
<glyph unicode="V" horiz-adv-x="501" d="M263 -7q-15 -1 -32 6t-26 15l-9 7q-2 4 -8 19q-3 10 -10 31t-9 28l-82 274q-63 218 -80 264q7 22 39 25q26 3 58 3q15 -17 26 -51q2 -7 8 -23q19 -75 58 -205l27 -94l18 -70q14 -50 19 -73q3 10 8.5 30l8.5 31q3 13 10 41l11 43l50 175q1 3 2.5 9t2.5 9l-1 -1 q3 12 30 105q5 13 10 34q4 14 14 35q14 4 25 4h10q36 -2 53 -4q9 -3 9 -18q0 -7 -4 -27q0 -3 -1.5 -8.5t-2.5 -9.5l-18 -62l-37 -125q-91 -321 -125 -397q-25 -17 -52 -20z" />
<glyph unicode="W" horiz-adv-x="781" d="M364 641q8 2 26 4t34 2q12 -16 19 -46l41 -166l14.5 -62.5t17.5 -71.5q0 -3 2 -8.5t2 -8.5q26 -122 26 -123q2 7 6.5 26.5t6.5 31.5l7 36.5l8 41.5q50 192 81 333l5 16l-1 -1q2 9 6 14q5 5 27 5q2 0 5.5 -0.5t5.5 -0.5q9 0 23 -2q20 0 35 -6v-7q0 -15 -6 -39l-22 -84 q-2 -10 -7.5 -29.5t-7.5 -27.5q-5 -18 -21 -88q-79 -319 -98 -364q-1 0 -2 -1l-2 -2q-29 -18 -46 -20q-31 -2 -66 26q-1 2 -2 5t-1 5l1 -1l-4 13q-1 5 -3 12.5t-3 12.5l-45 180q-20 86 -40 187q-18 -86 -41 -186q-1 -3 -2.5 -8.5t-3.5 -15t-4 -17.5l-46 -187 q-24 -20 -53 -24q-32 -4 -66 28v3l-4 10q-4 10 -6 18q-8 29 -27 106.5l-27 109.5l-42 169q-12 52 -17 76q-22 101 -30 118q9 25 41 28q24 3 50 3q8 -1 16.5 -25t11.5 -39q18 -81 58 -245l15 -60q1 -7 5 -27l6 -30q4 -19 7.5 -33t7.5 -35l22 110l81 331q0 3 2 10t2 10 q7 7 22 10z" />
<glyph unicode="X" horiz-adv-x="507" d="M490 18q1 -4 1 -9q-14 -13 -78 -13q-25 0 -48 12l-56 110q-1 1 -2 3.5t-2 3.5l-9 18.5l-8 16.5q-31 64 -45 88q-1 -1 -23 -43q-10 -21 -42 -80l-61 -111q-11 -16 -32 -16q-27 0 -50 4q-6 1 -15 3q-3 1 -19 1l163 291l12 20.5l12 20.5l-86 162q-56 102 -75 141q0 11 12 15 q43 9 93 9q10 -10 26 -39q35 -63 43 -79q39 -86 56 -116l32 64l30 59q21 37 35 68l12 23q0 1 2 4t2 4q9 11 29 11q25 0 76 -8q-5 -22 -7 -29q-53 -105 -156 -279q94 -162 178 -330z" />
<glyph unicode="Y" horiz-adv-x="472" d="M236 395l120 261q22 8 40 8q15 0 55 -4q3 -9 3 -16t-10 -33l-1 -1l-1 -4q-16 -37 -79 -151q-46 -78 -65 -123q-10 -27 -13 -47v-144q0 -17 0.5 -44t0.5 -37v-46q-9 -11 -27.5 -14.5t-70.5 -3.5q-10 24 -10 49v232q0 17 -1 21q-24 58 -53 113l-17.5 34.5l-21.5 42 l-19 36.5l-62 122q0 7 10.5 9.5t45.5 2.5h58q15 -36 60 -133q36 -84 58 -130z" />
<glyph unicode="Z" horiz-adv-x="477" d="M38 603q1 6 3 16q1 3 1.5 10t2.5 13q8 21 25 24q48 -3 61 -3l304 -3v-12q0 -1 0.5 -5.5t0.5 -6.5q0 -23 -13 -49q-86 -187 -271 -509q57 -2 210 -2q23 0 75 4h7l7 1q4 -18 2 -36q-16 -41 -43 -45q-33 -3 -126 -3q-153 0 -251 4q-13 13 -15 25q0 2 -0.5 4.5t-0.5 3.5v5 q0 1 0.5 3t0.5 3v7q178 297 296 532h-216q-60 0 -60 16v3z" />
<glyph unicode="[" horiz-adv-x="368" d="M229 797h1q32 -5 94 -20q2 -1 7 -2t7 -2q0 -30 -5.5 -38.5t-26.5 -10.5q-5 0 -16 -0.5t-16 -1.5q-20 -1 -40 -3q-27 -4 -36 -8q0 -119 -1 -160q-2 -138 -2 -266q0 -237 1 -291q2 -35 9 -54q7 -1 20.5 -1.5t20.5 -0.5q4 -1 14.5 -1.5t15.5 -0.5q32 -2 57 -9q0 -37 -5 -48 t-20 -16q-80 0 -192 8q-2 0 -8.5 0.5t-7.5 0.5q-1 36 -1 130v144q0 26 0.5 79.5t0.5 80.5q0 169 4 439q0 27 6 38q5 4 47.5 9t71.5 5z" />
<glyph unicode="\" horiz-adv-x="336" d="M100 702l10 -4l89 -331l90 -332q11 -41 11 -66q0 -8 -1 -13q-6 -11 -21.5 -14t-61.5 -3l-115 425l-83 307q-1 4 -1 10q0 21 64 21h19z" />
<glyph unicode="]" horiz-adv-x="368" d="M129 -137h-1q-49 7 -108 24q0 31 5.5 39.5t27.5 9.5q1 0 4 0.5t5 0.5q11 1 62 4q21 2 35 8q0 7 0.5 32t0.5 36q3 255 3 358v122q0 130 -1 168q-2 36 -9 55q-6 1 -19.5 1.5t-20.5 0.5q-5 1 -15.5 1.5t-15.5 0.5q-32 2 -57 9q0 37 5 48t20 16q78 0 208 -10q1 -37 1 -129 v-144q0 -26 -0.5 -80t-0.5 -81q0 -169 -4 -439q0 -26 -7 -37q-5 -4 -47 -9t-71 -5z" />
<glyph unicode="^" horiz-adv-x="389" d="M200 683l7 -2q23 -23 100 -170q10 -19 41 -72q-28 -40 -51 -40q-14 0 -27 15q-14 18 -70 132q-10 22 -13 28q-2 -3 -25 -55q-34 -78 -50 -101q-15 -17 -29 -17q-37 12 -46 30q1 3 4 9l7.5 15t7.5 16q71 155 93 187q13 13 26 21q8 4 25 4z" />
<glyph unicode="_" horiz-adv-x="439" d="M426 -97h-426q0 56 13 70h426q0 -57 -13 -70z" />
<glyph unicode="`" horiz-adv-x="321" d="M187 546l-8 2q-11 13 -63 60q-35 33 -63 62q-1 2 -1 5q0 9 9 21q23 32 52 32q11 -1 55.5 -52.5t58.5 -80.5q2 -4 2 -7q0 -12 -15 -26.5t-27 -15.5z" />
<glyph unicode="a" horiz-adv-x="405" d="M49 410l1 -1q-2 6 -2 13q0 6 3 13q19 17 63 33t92 17q19 0 35 -1q58 -4 82 -39t24 -103v-44q0 -76 -1 -113q0 -12 -0.5 -45t-0.5 -41v-12.5t7 -18.5t21 -8q-2 -28 -2 -43q-18 -27 -62 -28q-33 0 -60 29l-22 -15q-28 -14 -77 -14q-56 0 -94.5 34.5t-38.5 100.5q0 43 18 75 t47 49.5t55.5 26.5t54.5 12q9 1 29 1q16 0 22 -1v49q0 35 -7 49.5t-30 14.5q-34 0 -100 -25q-18 -8 -37 -8q-15 16 -20 43zM241 107q2 12 2 47v66h-10q-11 0 -31 -2h1q-80 -15 -80 -86q0 -62 43 -65h6q19 0 39 8.5t29 20.5l-1 -1l1 1q0 2 0.5 5.5t0.5 5.5z" />
<glyph unicode="b" horiz-adv-x="463" d="M64 15l-3 2q-10 23 -10 58v505q0 49 -2 95q14 32 96 32q10 -24 10 -80v-170q49 28 105 28q77 0 123.5 -51.5t46.5 -158.5q0 -178 -99 -250q-55 -38 -135 -38q-87 0 -132 28zM155 382v-311q22 -9 49 -9q47 0 80.5 46.5t33.5 152.5q0 77 -24 110.5t-70 33.5q-38 0 -69 -23z " />
<glyph unicode="c" horiz-adv-x="378" d="M357 442v-1q0 -27 -16 -54h-12q-12 0 -33 7q-27 12 -53 12q-6 0 -11 -1q-99 -9 -99 -172q0 -167 116 -167q44 0 92 24q9 -27 9 -38q-2 -24 -26 -43q-33 -23 -93 -23q-46 0 -80 10t-64.5 35t-46.5 74.5t-16 122.5q0 139 75 208q53 49 142 49q42 0 76.5 -15.5t39.5 -27.5z " />
<glyph unicode="d" horiz-adv-x="465" d="M401 98v-12.5t7 -18t21 -7.5q-2 -28 -2 -44q-19 -27 -62 -28q-31 -2 -60 29q-12 -10 -24 -16v1q-30 -17 -76 -15q-85 4 -132.5 57.5t-47.5 175.5q0 128 68 204q55 61 138 61q40 0 67 -11v106q0 49 -2 95q14 32 97 32q9 -22 9 -80v-331v-112q0 -12 -0.5 -45t-0.5 -41z M298 152v242q-22 15 -53 15q-45 0 -76.5 -44t-31.5 -135q0 -162 95 -162q43 0 64 26l-1 -1q2 2 2 12q1 11 1 47z" />
<glyph unicode="e" horiz-adv-x="408" d="M237 70q62 0 116 29q8 -24 10 -50q-1 -15 -21 -30.5t-44 -21.5h1q-37 -10 -78 -10q-92 0 -141 49q-55 56 -55 183q0 138 53.5 202t145.5 64q69 0 107.5 -38t44.5 -105q2 -30 2 -48q0 -34 -5 -59q-23 -19 -78 -27q-47 -6 -129 -6h-35q1 -71 28.5 -101.5t77.5 -30.5z M214 411h-4q-29 -4 -51 -38.5t-26 -98.5h28q66 0 96 3q13 3 15 4q4 14 4 30q0 2 -0.5 5.5t-0.5 5.5v10q-7 79 -61 79z" />
<glyph unicode="f" horiz-adv-x="273" d="M335 688h1q5 -7 5 -20q-2 -12 -6 -22q-6 -14 -11 -19q-13 -7 -24 -3q-4 3 -9 3q-13 4 -36 4q-74 0 -79 -100q-1 -20 -1 -59h43q42 0 66 2q-2 -39 -7.5 -53t-20.5 -19l1 1q-1 -1 -6 -3t-6 -2q-19 -2 -71 -2q0 -165 2 -371q0 -19 -12 -23q-26 -5 -62 -5q-16 0 -32 3 q-1 6 -1 27v59q0 9 0.5 29.5t0.5 31.5v121q0 22 -0.5 63.5t-0.5 64.5q-42 2 -61 16q4 29 9.5 37.5t21.5 13.5q3 1 12.5 3t17.5 4q0 44 4 72v-1q4 48 22 82.5t45.5 52.5t55.5 25.5t58 7.5q62 0 81 -21z" />
<glyph unicode="g" horiz-adv-x="431" d="M376 312q0 -80 -45.5 -124.5t-126.5 -44.5q-24 0 -42 3l-20 -20q-5 -5 -5 -14q0 -16 51 -21l39 -3q8 0 24 -2t24 -2q28 -2 36 -4q48 -9 77 -36t31 -70q0 -67 -62 -131.5t-153 -85.5q-47 -9 -93 -9q-93 0 -106 44q-7 34 43.5 86t110.5 92q19 -10 23 -30.5t-10 -33.5 q-68 -57 -63 -80q3 -10 25 -10q13 0 67 9q48 13 82.5 51.5t33.5 70.5v14q-14 38 -52 42q-22 3 -67 5q-3 0 -9.5 0.5t-9.5 0.5q-20 2 -39 5.5t-28 5.5l-9 3q-73 22 -75 72q0 8 13 24q8 8 25.5 24t22.5 20q3 2 4.5 4.5t3.5 4.5q-64 40 -64 136q0 83 49 130t128 47q41 0 89 -23 q-3 2 0 4q10 0 35 1t36 2h-1q26 2 44 2q8 -16 8 -34q0 -45 -36 -45q-20 0 -32 1q23 -36 23 -81zM198 418q-31 0 -48 -27t-12 -78q8 -102 78 -102q33 0 47.5 30.5t10.5 79.5q-10 97 -76 97z" />
<glyph unicode="h" horiz-adv-x="460" d="M57 -3l-9 5q2 114 2 205v377q0 48 -2 92q9 18 31.5 24.5t63.5 6.5q11 -21 11 -70v-190q16 11 48 26q31 12 68 12q76 0 104.5 -43t28.5 -147v-145q0 -101 1 -137q-9 -10 -27 -13t-71 -3q-9 24 -9 50v239q0 31 -2 41q-4 75 -54 75q-45 0 -87 -40v-299q0 -32 -11 -52 q-13 -10 -27 -12t-59 -2z" />
<glyph unicode="i" horiz-adv-x="212" d="M137 475l8 -3q9 -18 9 -72v-335q0 -33 -14 -55q-5 -8 -20.5 -9.5t-72.5 -3.5v82q0 14 0.5 45t0.5 47v174q0 50 -2 102q13 28 91 28zM43 638q0 60 62 60q33 0 44.5 -13.5t10.5 -44.5t-14 -47.5t-47 -16.5q-30 0 -43 14.5t-13 47.5z" />
<glyph unicode="j" horiz-adv-x="216" d="M139 475l9 -3q8 -17 8 -65v-313q0 -68 -6 -127q-5 -58 -30 -101q-33 -51 -94 -58q-8 -1 -23 -1q-25 0 -37 4q-37 6 -41 36q0 19 9 35h10q1 0 3 -0.5t3 -0.5q25 0 60 15q34 15 39 99q2 44 2 79v251q0 56 -2 122q13 28 90 28zM45 638q0 60 62 60q33 0 44.5 -13.5 t10.5 -44.5t-14 -47.5t-47 -16.5q-30 0 -43 14.5t-13 47.5z" />
<glyph unicode="k" horiz-adv-x="406" d="M58 -3l-10 5q2 68 2 193v361q0 36 -2 90l-1 27q15 35 92 35q14 -23 14 -83v-162q43 31 113 31q50 0 71 -30t21 -70q0 -68 -41.5 -112.5t-87.5 -64.5q30 -23 149 -169l45 -55q18 -16 -19 -28q-17 -5 -39 -5q-29 0 -58 23q-13 11 -38 45q-1 1 -22.5 27t-32.5 38 q-5 6 -28 29q-28 28 -33 35v-124q0 -26 -14 -31t-81 -5zM153 364v-104q94 50 94 121q0 34 -23 34q-34 0 -71 -51z" />
<glyph unicode="l" horiz-adv-x="211" d="M152 98v-12.5t7.5 -18.5t21.5 -8q-2 -28 -2 -43q-19 -27 -62 -28q-21 0 -40 14q-29 20 -29 53v510q0 53 -2 111q8 19 31.5 25t67.5 6q7 -27 7 -97v-512z" />
<glyph unicode="m" horiz-adv-x="689" d="M395 19q0 -16 -20 -21q-6 -1 -37 -1h-50q2 50 2 189v119q0 55 -12.5 77t-44.5 22q-41 0 -75 -36v-320q0 -25 -11 -38q-12 -9 -27.5 -11t-67.5 -2q1 50 1 190v177q0 41 -12 75q10 12 43 25q6 2 13 2q26 0 37 -21q30 21 59 30q30 10 65 10q14 0 20 -1q60 -6 88 -42 q29 21 65 32q29 10 63 10q16 0 21 -1h-1q66 -5 91.5 -48.5t25.5 -125.5v-166q0 -95 2 -130q-21 -16 -99 -16q-9 18 -9 37v270q0 55 -12 77t-44 22q-40 0 -77 -39l3 3v-348z" />
<glyph unicode="n" horiz-adv-x="462" d="M231 402q-43 0 -78 -39l3 3v-308q0 -31 -12 -48q-10 -8 -21.5 -10t-47.5 -3h-26q2 106 2 197v168q0 44 -11 75q11 12 42 25q6 2 14 2q26 0 36 -21q28 20 59 30q33 11 65 11q88 0 118.5 -42.5t30.5 -135.5v-151q0 -64 2 -142q-17 -16 -97 -16q-11 21 -11 45v262 q0 54 -15 76t-53 22z" />
<glyph unicode="o" horiz-adv-x="453" d="M421 240q0 -122 -55.5 -188t-144.5 -66q-200 0 -200 248q0 125 55 188t148 63q197 0 197 -245zM132 238q0 -178 91 -178q39 0 63.5 42t24.5 135q0 172 -90 172q-39 0 -64 -42t-25 -129z" />
<glyph unicode="p" horiz-adv-x="468" d="M155 -190l-4 -3q-16 -10 -56 -10q-17 0 -40 5q-3 17 -3 101v461q0 43 -11 74q6 11 42 26l13 2q26 0 37 -21q30 20 60 30q31 11 62 11q80 0 129.5 -53.5t49.5 -164.5q0 -173 -90 -244q-46 -38 -109 -38q-49 0 -78 17v-150q0 -30 -2 -43zM220 62q40 0 71 46t31 153 q0 143 -88 143q-37 0 -77 -34v-281q25 -27 63 -27z" />
<glyph unicode="q" horiz-adv-x="466" d="M404 377v-546q0 -20 -9 -27t-42 -9h-55q2 88 2 166v49q-45 -26 -93 -26q-78 0 -130 56t-52 175q0 139 84 213q51 45 120 54q24 2 37 2q74 0 150 -31q-12 -34 -12 -76zM300 98v286q0 8 2 18q-19 6 -53 8q-46 0 -79 -48.5t-33 -142.5q0 -78 26.5 -115t70.5 -37q43 0 66 31z " />
<glyph unicode="r" horiz-adv-x="310" d="M223 392q-42 0 -68 -26v-315q0 -27 -10 -41q-12 -9 -28.5 -11t-67.5 -2q2 106 2 198l1 167q0 38 -13 75q13 13 43 25q6 2 14 2q27 0 36 -20q23 16 59 29q30 12 58 8q45 -5 50 -28q0 -37 -18 -63q-7 -2 -16 -2q-13 0 -29 2q-7 2 -13 2z" />
<glyph unicode="s" horiz-adv-x="356" d="M188 485q15 0 29 -2q42 -3 67.5 -17.5t29.5 -27.5q0 -26 -20 -51l-20 4q-22 4 -33 8q-22 9 -45 9q-26 0 -41.5 -13t-15.5 -33q0 -25 27 -47l42 -30l31 -23l27 -20q62 -52 62 -112q0 -69 -49.5 -106t-125.5 -37q-49 0 -86.5 13.5t-46.5 34.5q0 27 20 54h10q14 0 30 -9v1 q37 -16 71 -16q6 0 18 2q22 2 35 16.5t13 37.5q0 34 -38 60l-12 8q-29 20 -68 53l-25 20q-46 46 -46 97q0 59 44 92.5t116 33.5z" />
<glyph unicode="t" horiz-adv-x="327" d="M281 83l17 -3q2 -12 2 -23q0 -20 -1 -28q-3 -9 -14 -19q-37 -24 -93 -24q-119 0 -119 171v238q-31 1 -59 14q0 21 1.5 26t7.5 11q13 9 43 18q3 1 8 1t8 2q0 14 2 43.5l3 43.5q14 41 94 46v-16q-2 -84 -2 -112h127q-2 -41 -8.5 -55.5t-22.5 -17.5q-14 -2 -25 -2 q-20 -1 -71 -1q-2 -88 -2 -129q0 -12 0.5 -33.5t0.5 -31.5v-49q3 -45 12 -67t31 -22q9 -1 31.5 6.5t28.5 12.5z" />
<glyph unicode="u" horiz-adv-x="465" d="M154 450q11 -42 11 -96l-10 -180q0 -60 16 -81.5t50 -21.5q47 -3 76 31v312q0 32 12 48q10 8 21.5 10t47.5 3h26q-2 -106 -2 -197v-168q0 -44 11 -75q-11 -11 -42 -25q-6 -2 -14 -2q-25 0 -36 22q-27 -20 -59 -31q-33 -11 -65 -11q-86 4 -116 44.5t-32 128.5l9 206 q0 49 -13 88q15 13 50 30q8 2 14 2q36 0 45 -37z" />
<glyph unicode="v" horiz-adv-x="402" d="M187 203q8 -36 15 -63q3 15 13 53q3 14 9.5 40.5l12 49.5l10.5 42q16 59 18 65q10 33 21 76q14 9 31 9q19 0 58 -5q6 -8 6 -15q0 -14 -11 -49v1l-31 -104l-26 -84.5l-32.5 -106.5l-30.5 -96q-11 -11 -45 -20q-3 0 -5 -1h2q-3 -1 -10 -1q-16 0 -30.5 7.5t-18.5 17.5 q-17 62 -86 279h1q-18 45 -48 150q10 30 94 30q15 -15 22 -41l6.5 -22.5l6.5 -22.5q8 -26 21 -75q21 -87 27 -114z" />
<glyph unicode="w" horiz-adv-x="617" d="M262 102l-18 -69q0 -1 -1 -4t-2 -4l1 1q-8 -27 -23 -32q-7 -1 -62 -4q-24 19 -32 49l-72 264q-35 131 -43 149q14 25 99 25q13 -11 19 -34l29 -122l8.5 -41l7.5 -36l20 -94l26 109q33 133 42 175q2 6 2 12v9q3 4 36 10.5t46 3.5q12 -11 19 -41l40 -169q2 -8 6.5 -30.5 t7.5 -33.5q4 -18 6.5 -27t4.5 -17q11 42 40 177q15 62 28 126q1 1 1 7q2 6 5 10q8 6 22 6q11 0 37 -3t29 -5q4 -2 7 -10q1 -9 -5 -31l-4 -10l1 1q-7 -22 -20.5 -72.5l-19.5 -71.5q-45 -166 -68 -242q0 -1 -1 -4t-2 -4l1 1q-6 -27 -22 -32q-6 -1 -62 -4q-23 18 -33 49l-13 47 q-2 6 -4 15t-3 11q-16 67 -37 164q-8 -34 -44 -174z" />
<glyph unicode="x" horiz-adv-x="431" d="M417 10l-7 -6q-14 -5 -58 -7q-25 0 -54 8q-2 3 -7.5 12.5l-8.5 14.5l-10 16.5t-10 15.5l-25.5 45.5l-31.5 56.5l-1 -1q-67 -120 -88 -151l1 1q-6 -12 -16 -15t-38 -3q-29 0 -56 4l12 33q13 22 40.5 64l37.5 57l56 89l-70 114q-30 47 -54 90l-5 13q31 17 61 17h37 q18 -14 37 -48h-1q6 -9 11 -15v-1l-2 3h-1q3 -5 10 -18t11 -19l32 -55q-1 1 1 3l2 2q37 67 39 71l18 29l11 16t8 12q8 12 15 15.5t26 3.5q24 0 69 -9l-8 -16q-1 -2 -2.5 -5.5t-2.5 -5.5l-84 -129l-39 -61l84 -137l56 -91z" />
<glyph unicode="y" horiz-adv-x="401" d="M99 478q8 0 17.5 -14.5t12.5 -28.5q15 -46 56 -191l8 -31.5l8 -34.5t6 -26q19 74 24 96q16 73 29 122l22 92q16 13 39 13q19 0 29 -1q3 0 11.5 -0.5t10.5 -0.5q7 -14 7 -25t-5 -28q-56 -225 -130 -432q-72 -184 -157 -184q-72 0 -84 36l7 31q11 4 38 4t44 7l-1 -1 q17 9 36 54.5t29 94.5l-1 1q-10 13 -21 47q-87 281 -120 373q6 15 24.5 21t60.5 6z" />
<glyph unicode="z" horiz-adv-x="371" d="M49 477h4q24 -5 84 -5l201 -3q0 -1 0.5 -6t0.5 -6q1 -2 1 -14q0 -15 -12 -39q-54 -106 -182 -327q26 -1 94 -1q79 0 116 10q0 -28 -3 -43q-6 -32 -25 -39q-28 -5 -112 -5q-139 0 -189 4q-14 16 -16 34q1 12 10 27q2 4 37 60q114 191 159 273h-93q-4 0 -12 -0.5t-11 -0.5 h-21q-61 0 -61 18q6 56 30 63z" />
<glyph unicode="{" horiz-adv-x="335" d="M239 681q-31 -8 -46 -28t-17 -38q-2 -14 3 -34q6 -18 21 -56q2 -4 3 -7q33 -79 33 -113q0 -74 -66 -103q67 -30 67 -100q0 -14 -6 -36q-8 -40 -32 -97q-15 -45 -21 -65q0 -1 -0.5 -2.5t-0.5 -2.5q-3 -11 -3 -22q0 -28 17.5 -47.5t49.5 -25.5q6 -2 21 -3l14 -3 q14 -3 17 -9l1 -1v-4q0 -8 -8 -24q-6 -8 -9 -19q-105 2 -151 36q-53 37 -53 104q0 42 37 128q15 39 23 69l1 2v2q4 20 2 31q-1 14 -5 23t-19 18t-41 11q-22 2 -32 17q-9 14 -9 26q0 11 3 20q101 5 103 59q1 9 -3 31q-11 36 -23 66q0 1 -1 3.5t-2 3.5q-33 76 -33 111 q0 84 88 122q42 17 116 22q3 -12 8 -21q0 -1 1 -3t1 -3q5 -12 5 -14q0 -4 -3 -7q-2 -6 -14 -9h1q-8 -3 -21 -4q-2 -1 -8 -2t-9 -2z" />
<glyph unicode="|" horiz-adv-x="306" d="M202 781v-989q-12 -10 -29 -12t-69 -2v988q12 11 28.5 13t69.5 2z" />
<glyph unicode="}" horiz-adv-x="335" d="M148 615q2 -14 -3 -34q-6 -18 -21 -56q-1 -1 -2 -3.5t-1 -3.5q-33 -79 -33 -113q0 -74 66 -103q-67 -30 -67 -100q0 -14 6 -36q8 -40 32 -97q15 -45 21 -65v-2q0 -2 1 -3q3 -11 3 -22q0 -28 -17.5 -47.5t-49.5 -25.5h-3q-3 0 -7 -1.5t-7 -1.5l-18 -3q-14 -3 -17 -9 q0 -1 -1 -3q0 -10 8 -26q6 -8 9 -19q104 1 151 36q53 37 53 104q0 44 -37 128q-13 33 -23 69l-1 2v2q-4 20 -2 31q1 14 5 23t19 18t41 11q22 2 32 17q9 14 9 26q0 11 -3 20q-101 5 -103 59q-1 9 3 31q10 34 23 66q0 1 1 3.5t2 3.5q33 76 33 111q0 84 -88 122q-42 17 -116 22 q-3 -12 -8 -21q0 -1 -1 -3t-1 -3q-5 -12 -5 -14q0 -1 3 -7q2 -6 14 -9h-1q9 -3 21 -4q2 -1 8 -2t9 -2q54 -14 63 -66z" />
<glyph unicode="~" horiz-adv-x="500" d="M65 184h-1q-27 1 -46 10q24 174 129 174q63 -2 125 -57h-1q1 -1 6 -5t6 -5q48 -46 72 -46q37 0 47 77q3 15 13 34q14 0 36 -6t32 -13q-11 -91 -42.5 -128.5t-81.5 -37.5q-24 0 -52.5 14t-45 26.5t-49.5 39.5q-40 34 -60 34q-38 0 -53 -99q-12 -12 -34 -12z" />
<glyph unicode="&#xa1;" horiz-adv-x="203" d="M131 273l10 -5q3 -81 4 -95q10 -222 13 -326q-3 -28 -112 -28q-12 29 -12 63q1 53 13 269q5 74 5 82q4 40 79 40zM97 362q-33 0 -44.5 13.5t-10.5 44.5t14 47.5t47 16.5q30 0 43 -15t13 -47q0 -60 -62 -60z" />
<glyph unicode="&#xa2;" d="M302 603l10 -5q-2 -52 -4 -88q62 -12 75 -38q0 -24 -12 -45q-13 -7 -25 -7q-10 0 -18 3q-17 7 -33 8q-12 2 -14 2q-108 0 -108 -164q0 -85 27.5 -117t76.5 -32q42 0 98 28q0 -52 -11 -72q0 -6 -10 -13q-33 -20 -71 -23q-3 -55 -3 -67q-1 -15 -10 -22.5t-28 -9.5 q-20 -3 -54 -3l5 108q-128 33 -128 215q0 59 14.5 105t38.5 73t48.5 42.5t51.5 24.5q0 5 1 15t1 15q1 10 1 33q1 15 10.5 22t32.5 10q6 1 20 1q3 0 9 0.5t9 0.5z" />
<glyph unicode="&#xa3;" horiz-adv-x="492" d="M349 335q-21 -2 -61.5 -6.5l-59.5 -6.5q10 -48 10 -89q0 -13 -1 -21q-2 -10 -2 -17q-6 -56 -43 -99q65 -13 129 -13q89 0 150 11q3 -21 -1 -46q-2 -20 -24 -34h2q-11 -9 -26 -13q-46 -10 -108 -10q-118 0 -267 28l1 61q68 37 77 130q1 6 1 18q0 34 -11 83q-8 -1 -30 -3 t-31 -3q-6 54 6 68q12 8 30 10h7q-6 38 -6 75q6 101 55 159q48 59 140 67q59 0 97.5 -17.5t47.5 -36.5q0 -30 -16 -53q-17 -5 -44 9q-11 7 -43 12q-29 4 -43 1q-70 -10 -78 -129q-1 -7 -1 -19q0 -20 6 -56l86 9t82 8q3 -36 -3 -55.5t-28 -21.5z" />
<glyph unicode="&#xa5;" d="M76 280q10 7 30 9l71 8v1q-20 51 -53 113l-17.5 34.5l-21.5 42l-19 36.5l-62 122q0 7 10.5 9.5t45.5 2.5h58q15 -36 60 -133l57 -130l121 261q22 8 40 8q15 0 55 -4q3 -9 3 -16t-10 -33l-1 -1l-1 -4q-22 -50 -79 -151q-49 -85 -65 -123q-3 -6 -8 -24q18 2 55 5.5t51 4.5 q3 -35 -3 -54.5t-29 -21.5q-14 -2 -39.5 -4t-39.5 -4v-93q0 -17 0.5 -44t0.5 -37v-46q-9 -11 -27.5 -14.5t-70.5 -3.5q-10 24 -10 49v178l-57 -6t-52 -5q-4 53 7 68z" />
<glyph unicode="&#xa7;" horiz-adv-x="483" d="M206 599q-1 -14 4 -26t10 -18t16 -17q23 -22 63 -56q37 -31 56.5 -49t46.5 -49t39 -65t12 -72q0 -19 -3 -35q-9 -65 -70 -85q-3 -1 -7 -1q13 -28 13 -50q0 -5 -2 -19v1q-6 -73 -81 -105l1 1q-41 -22 -101 -22h-13q-49 2 -83 14q-18 11 -5 76q56 -21 113 -21q36 0 59 17 t23 47q0 10 -2 15q-4 21 -27 46q-35 33 -67 60l-63.5 55.5t-53.5 56.5t-44 72.5t-14 78.5q0 66 37 114q20 26 46 28q6 0 9 -1q0 7 2 17q7 70 81 104l-1 -1q39 22 104 20q58 0 94 -28q13 -12 -19 -58q-57 20 -91 20q-35 0 -58.5 -17t-23.5 -48zM93 470q0 -34 15.5 -68 t51 -70.5t55.5 -54.5t65 -55q65 -53 73 -64q4 -5 10 -15q8 19 14 46q9 49 -16 104t-62 87l-47 37q-77 58 -102 89q-21 25 -30 61q-27 -45 -27 -97z" />
<glyph unicode="&#xa8;" horiz-adv-x="364" d="M47 617q0 56 59 56q31 0 42 -12.5t10 -41.5q-2 -60 -58 -60q-53 0 -53 58zM202 617q0 56 59 56q31 0 42 -12.5t10 -41.5q-2 -60 -58 -60q-29 0 -41 14t-12 44z" />
<glyph unicode="&#xa9;" horiz-adv-x="578" d="M30 427q0 125 72 196.5t191 71.5q118 0 186 -69.5t68 -197.5q0 -124 -71 -196.5t-187 -72.5q-120 0 -189.5 69.5t-69.5 198.5zM108 427q0 -98 48.5 -153t132.5 -55q80 0 130 56.5t50 153.5q0 96 -47.5 152t-128.5 56q-83 0 -134 -55t-51 -152v-3zM385 553l1 -2 q0 -15 -8 -31q-12 -6 -16 -6q-9 0 -16 4l1 -1q-11 4 -20 5q-7 1 -25 1q-62 -6 -62 -99q0 -13 3 -22q4 -38 21.5 -53t49.5 -15q17 0 59 14q8 -16 11 -28q-2 -13 -13 -23q-29 -17 -68 -17q-68 0 -102 33.5t-34 108.5q0 79 40 116.5t102 37.5q27 0 49 -7.5t27 -15.5z" />
<glyph unicode="&#xaa;" horiz-adv-x="293" d="M64 595h1q-2 3 -2 8l1 3v5q34 31 102 33h23q38 -3 53.5 -25.5t15.5 -65.5v-28q0 -11 -0.5 -34.5t-0.5 -35.5v-54v-6.5t4.5 -9.5t12.5 -4q-2 -18 -2 -31q-10 -19 -41 -20q-23 0 -38 17l-16 -10q-17 -7 -47 -7q-36 0 -61 22.5t-25 64.5q0 52 35.5 76t77.5 28h18h11v28 q0 21 -3.5 30t-16.5 9q-20 0 -61 -16q-12 -5 -28 -5q-11 11 -13 28zM184 406v1q2 7 2 29v39h-3q-8 0 -18 -2q-47 -7 -47 -51q0 -36 23 -39h4q24 0 38 16q0 1 0.5 3.5t0.5 3.5z" />
<glyph unicode="&#xab;" horiz-adv-x="452" d="M26 245l2 2q23 36 59 86l91 132q20 -2 38.5 -19.5t18.5 -25.5q0 -26 -103 -176q-2 -2 -2 -3t-1 -1l35 -50.5t45 -73t24 -57.5q0 -10 -19 -28t-40 -19q-22 36 -140 204q-8 16 -8 29zM204 244l2 2l83 114l73 100q19 -3 37 -19.5t18 -26.5q0 -29 -108 -175l35.5 -48.5 t46 -71t24.5 -54.5q0 -9 -18.5 -27t-39.5 -21q-14 25 -99 139l-42 57q-12 16 -12 31z" />
<glyph unicode="&#xac;" horiz-adv-x="498" d="M54 387h367l40 -7v-218q0 -21 -3 -33q-6 -15 -65 -19q-2 0 -11.5 -0.5t-11.5 -0.5v200h-341q0 54 25 78z" />
<glyph unicode="&#xad;" horiz-adv-x="292" d="M220 226h1q-101 -16 -162 -16q-16 0 -32 6q7 75 34 76q64 6 172 20q12 -1 31 -11q-5 -70 -44 -75z" />
<glyph unicode="&#xae;" horiz-adv-x="396" d="M25 522q0 84 47 131t129 47q83 0 126.5 -44.5t43.5 -132.5q0 -83 -46.5 -131.5t-127.5 -48.5q-83 0 -127.5 45t-44.5 134zM170 624q21 0 29 -1q69 -3 69 -60q0 -31 -28 -50q27 -34 37 -77v-4q26 34 26 92q0 60 -27 92.5t-76 32.5t-78 -32t-29 -95q0 -127 103 -127 q46 0 74 30q-7 -2 -22 -2q-10 0 -11 1q-6 0 -19 5q-6 41 -24 65h-6q-1 0 -1 1v-63q-10 -8 -53 -8l1 192q6 6 18 6h1q1 0 3 1q4 1 13 1zM213 564q0 24 -19 24q-2 0 -4 -0.5t-3 -0.5v-53h2q5 0 14 3v-1q10 5 10 28z" />
<glyph unicode="&#xaf;" horiz-adv-x="440" d="M131 657q68 -1 170 1q9 -3 22 -9q-5 -56 -35 -56q-100 -4 -160 2q-9 1 -22 6q4 33 9 45t16 11z" />
<glyph unicode="&#xb0;" horiz-adv-x="355" d="M85 641q0 43 31 73.5t78 30.5t77 -31t30 -72q0 -44 -31.5 -74t-77.5 -30q-44 0 -75.5 29t-31.5 74zM154 642q0 -21 11.5 -34.5t28.5 -13.5t28 14t11 33t-11 34t-29 15q-17 0 -28 -14.5t-11 -33.5z" />
<glyph unicode="&#xb1;" horiz-adv-x="292" d="M104 209v92h-82q0 41 7 58.5t26 17.5h49q0 30 -2 66q12 13 71 15q19 -8 19 -40v-41h82q0 -42 -6.5 -59t-27.5 -17h-48v-49q0 -11 -2.5 -19t-11 -12.5l-13.5 -7t-20 -3.5t-19 -1h-22zM27 87q7 75 34 76q91 8 172 19q8 -1 31 -10q-5 -68 -43 -75q-101 -16 -162 -16 q-15 0 -32 6z" />
<glyph unicode="&#xb4;" horiz-adv-x="335" d="M215 725q19 0 39.5 -18t20.5 -34q-2 -3 -14 -15l-118 -116q-17 4 -31.5 17t-14.5 26q0 3 2 9q94 131 116 131z" />
<glyph unicode="&#xb5;" horiz-adv-x="465" d="M401 110q0 -41 12 -75q-11 -11 -42 -25q-6 -2 -14 -2q-25 0 -36 22q-27 -19 -60 -31q-31 -11 -64 -11q-37 2 -57 7v-153q-11 -33 -40 -33q-8 0 -14 2q-39 18 -48 27q12 36 12 75v262l-1 149q0 60 -2 132q15 19 99 19q9 -31 9 -101l-1 -200q0 -60 16.5 -81.5t50.5 -21.5 q47 -3 76 31v312q0 32 12 48q10 8 21 10t48 3h25q-2 -106 -2 -197v-168z" />
<glyph unicode="&#xb6;" horiz-adv-x="510" d="M340 -61h-1q-41 -31 -94 -31q-23 0 -65 8q-19 4 -26 20q-8 29 -9 33q38 -8 54 -8q23 0 55 10q82 34 82 190v71q-6 -2 -9 -2q-67 -14 -108 -17q-82 0 -134 53.5t-52 148.5q0 108 67.5 167.5t166.5 59.5h166q18 0 18 -12q0 -8 -3 -11l-25 -21q-7 -5 -13 -6v-366 q0 -9 -0.5 -26t-0.5 -25v-44q-4 -129 -69 -192z" />
<glyph unicode="&#xb7;" horiz-adv-x="202" d="M36 256q0 62 68 62q37 0 49.5 -14t11.5 -46t-15.5 -49t-52.5 -17q-34 0 -47.5 15.5t-13.5 48.5z" />
<glyph unicode="&#xb8;" horiz-adv-x="275" d="M94 -29q39 2 63 -4q33 -8 54 -28.5t21 -48.5q0 -81 -133 -102q-10 1 -16.5 12t-6.5 19q0 10 13 13q44 14 61 26t17 32q0 19 -26 28.5t-59 9.5q5 33 12 43z" />
<glyph unicode="&#xba;" horiz-adv-x="321" d="M301 490q0 -77 -35.5 -119t-93.5 -42q-128 0 -128 157q0 79 35 119t95 40q127 0 127 -155zM121 489q0 -109 53 -109q51 0 51 108q0 107 -53 107q-51 0 -51 -106z" />
<glyph unicode="&#xbb;" horiz-adv-x="451" d="M425 234l-2 -3l-77 -111l-77 -111q-55 24 -55 50q0 29 108 180q0 1 -2.5 2.5t-3.5 3.5h1q-98 141 -98 176q0 16 22.5 29.5t35.5 14.5q34 -58 139 -202q9 -17 9 -29zM247 233l-2 -3q-6 -9 -77 -105l-86 -112l-4 3l-6 3t-6 3.5t-6.5 4.5l-6.5 5t-6.5 5.5t-5.5 6.5t-4.5 7 t-2.5 7t-1 8q0 28 110 173l-7 10l-8 11l-14 21l-17 25l-17 25.5t-16.5 26.5l-13 23t-9.5 20.5t-3 13.5q0 16 19.5 29.5t35.5 19.5q34 -58 147 -208q7 -12 7 -23z" />
<glyph unicode="&#xbf;" horiz-adv-x="328" d="M86 114q47 61 47 102q0 12 -5 34q-2 14 -2 20q10 16 45 16q18 0 33.5 -10.5t21.5 -30.5q5 -22 5 -41q0 -29 -13 -59q-9 -19 -40 -65q-2 -2 -4 -6t-4 -6q-17 -23 -23.5 -33t-14.5 -30t-8 -38q0 -30 16 -45.5t42 -15.5q35 0 76 26q16 -2 26.5 -16.5t10.5 -41.5 q-15 -25 -55.5 -39t-82.5 -14q-141 0 -141 135q0 31 11 61t23.5 49t35.5 48zM167 366q-34 0 -45 13.5t-10 44.5t14 47.5t47 16.5q30 0 43 -15t13 -47q0 -60 -62 -60z" />
<glyph unicode="&#xc0;" horiz-adv-x="542" d="M412 14l-2 2q-8 23 -22 69l-29 95h-190l-57 -167q-6 -17 -39 -17q-29 0 -69 9q4 27 9 39l92 265q78 213 114 327q7 25 19 25q1 0 5 2q8 2 14 2q10 1 31 1q16 -3 27 -15l72 -221l75 -222h-1q37 -101 49 -142q10 -34 15 -49l1 -2q0 -4 -6 -10q-25 -9 -63 -9q-23 0 -45 18z M299 728h-7q-11 4 -70 38q-4 2 -34 19l-43 24q-11 6 -16 13q0 10 5 20q9 20 25 26q6 17 23 17q11 0 59 -33.5t75 -59.5q13 -13 16 -22q0 -7 -12.5 -23t-20.5 -19zM215 323l-20 -63h139q-4 12 -14 47l-11 40.5t-10 34.5q-26 79 -33 108l-52 -168z" />
<glyph unicode="&#xc1;" horiz-adv-x="542" d="M412 14l-2 2q-8 23 -22 69l-29 95h-190l-57 -167q-6 -17 -39 -17q-29 0 -69 9q4 27 9 39l92 265q78 213 114 327q7 25 19 25q1 0 5 2q8 2 14 2q10 1 31 1q16 -3 27 -15l72 -221l75 -222h-1q37 -101 49 -142q10 -34 15 -49l1 -2q0 -4 -6 -10q-25 -9 -63 -9q-23 0 -45 18z M215 323l-20 -63h139q-4 12 -14 47l-11 40.5t-10 34.5q-26 79 -33 108l-52 -168zM236 721q-9 3 -17 18.5t-8 21.5q13 16 18 20q32 29 77 58t57 29q13 -2 24 -20t15 -36q0 -9 -14 -16q-24 -11 -79.5 -39.5t-72.5 -35.5z" />
<glyph unicode="&#xc2;" horiz-adv-x="542" d="M412 14l-2 2q-8 23 -22 69l-29 95h-190l-57 -167q-6 -17 -39 -17q-29 0 -69 9q4 27 9 39l92 265q78 213 114 327q7 25 19 25q1 0 5 2q8 2 14 2q10 1 31 1q16 -3 27 -15l72 -221l75 -222h-1q37 -101 49 -142q10 -34 15 -49l1 -2q0 -4 -6 -10q-25 -9 -63 -9q-23 0 -45 18z M277 866l6 -1q46 -35 100 -91l20 -20q-6 -15 -21 -29.5t-27 -14.5q-18 0 -29 10h1q-11 8 -47 44l-12 12q-29 -33 -62 -58h1q-2 -2 -12 -6l-11 -1q-33 10 -44 35q29 34 100 107q11 13 37 13zM215 323l-20 -63h139q-4 12 -14 47l-11 40.5t-10 34.5q-26 79 -33 108l-52 -168z " />
<glyph unicode="&#xc3;" horiz-adv-x="542" d="M412 14l-2 2q-8 23 -22 69l-29 95h-190l-57 -167q-6 -17 -39 -17q-29 0 -69 9q4 27 9 39l92 265q78 213 114 327q7 25 19 25q1 0 5 2q8 2 14 2q10 1 31 1q16 -3 27 -15l72 -221l75 -222h-1q37 -101 49 -142q10 -34 15 -49l1 -2q0 -4 -6 -10q-25 -9 -63 -9q-23 0 -45 18z M215 323l-20 -63h139q-4 12 -14 47l-11 40.5t-10 34.5q-26 79 -33 108l-52 -168zM222 783q-23 -5 -37 -38q-5 -11 -11 -11q-16 0 -41 25q32 94 98 94q8 0 15 -2t13.5 -6.5t10.5 -8t11.5 -11l10.5 -10.5q16 -16 26 -16q27 0 38 39q4 10 12 10q16 0 34 -30q-5 -34 -30 -62 t-61 -28q-12 0 -22 4.5t-14.5 8.5t-14 14.5t-12.5 13.5q-14 14 -26 14z" />
<glyph unicode="&#xc4;" horiz-adv-x="542" d="M412 14l-2 2q-8 23 -22 69l-29 95h-190l-57 -167q-6 -17 -39 -17q-29 0 -69 9q4 27 9 39l92 265q78 213 114 327q7 25 19 25q1 0 5 2q8 2 14 2q10 1 31 1q16 -3 27 -15l72 -221l75 -222h-1q37 -101 49 -142q10 -34 15 -49l1 -2q0 -4 -6 -10q-25 -9 -63 -9q-23 0 -45 18z M215 323l-20 -63h139q-4 12 -14 47l-11 40.5t-10 34.5q-26 79 -33 108l-52 -168zM140 792q0 52 50 52q26 0 35 -11.5t8 -38.5q-2 -56 -49 -56q-24 0 -34 13t-10 41zM307 792q0 52 50 52q26 0 35 -11.5t8 -38.5q-2 -56 -49 -56q-24 0 -34 13t-10 41z" />
<glyph unicode="&#xc5;" horiz-adv-x="542" d="M412 14l-2 2q-8 23 -22 69l-29 95h-190l-57 -167q-6 -17 -39 -17q-29 0 -69 9q4 27 9 39l92 265q78 213 114 327q7 25 19 25q1 0 5 2q8 2 14 2q10 1 31 1q16 -3 27 -15l72 -221l75 -222h-1q37 -101 49 -142q10 -34 15 -49l1 -2q0 -4 -6 -10q-25 -9 -63 -9q-23 0 -45 18z M160 808q0 44 30.5 74t77.5 30q46 0 75.5 -30.5t29.5 -71.5q0 -44 -31 -72.5t-78 -28.5q-43 0 -73.5 28t-30.5 71zM215 323l-20 -63h139q-4 12 -14 47l-11 40.5t-10 34.5q-26 79 -33 108l-52 -168zM228 809q0 -20 11.5 -33.5t27.5 -13.5q18 0 28.5 14t10.5 33 q0 20 -10.5 34.5t-29.5 14.5q-17 0 -27.5 -14.5t-10.5 -34.5z" />
<glyph unicode="&#xc6;" horiz-adv-x="713" d="M466 307q8 -160 11 -228q21 -2 79 -2q102 0 135 1q-2 -41 -11 -57.5t-29 -21.5q-52 -2 -113 -2q-62 0 -158 6q0 3 -1 11t-2 12t-2.5 9t-1.5 8q-8 130 -11 184h-149l-94 -208q-4 -8 -3 -7q-10 -19 -37 -19q-19 0 -36 5q-9 3 -34 13l120 263l151 331q4 8 4 9q1 3 6.5 15 t7.5 18q30 14 68 16h297q-1 -64 -26 -75q-35 -5 -85 -5h-97q0 -11 0.5 -31t1 -36.5t1.5 -30.5q4 -63 5 -99h186q-4 -47 -13.5 -63t-32.5 -16h-137zM315 460q-43 -91 -70 -155h113l-8 236z" />
<glyph unicode="&#xc7;" horiz-adv-x="475" d="M307 677q59 0 97 -17.5t48 -36.5q0 -32 -17 -54h-11q-8 -1 -24 7q-1 0 -3.5 1t-3.5 2v-1q-24 10 -44 14q-16 2 -30 2q-13 0 -20 -1q-71 -7 -115.5 -73.5t-44.5 -199.5q0 -246 172 -246q32 0 67 10.5t55 22.5q12 -20 14 -41q-3 -29 -26 -48q-37 -33 -124 -33 q-132 0 -201 75.5t-69 254.5q0 188 88 285q72 77 192 77zM230 -29q39 2 63 -4q33 -8 54 -28.5t21 -48.5q0 -81 -133 -102q-10 1 -16.5 12t-6.5 19q0 10 13 13q44 14 61 26t17 32q0 19 -26 28.5t-59 9.5q5 33 12 43z" />
<glyph unicode="&#xc8;" horiz-adv-x="395" d="M159 311v-232q19 -2 73 -2q100 0 141 1q-4 -41 -13 -57.5t-29 -21.5q-50 -2 -118 -2q-95 0 -153 6q-5 23 -8 43v474q0 86 -2 126l28 10q19 6 32 7h249q-2 -40 -7.5 -55t-19.5 -20q-29 -5 -95 -5h-78v-192h184q-6 -51 -15.5 -65.5t-33.5 -14.5h-135zM249 725h-6 q-15 5 -73 40q-63 37 -81 45q-6 4 -9 10q0 9 5 19q7 19 24 26q7 17 24 17q11 0 59 -33.5t75 -59.5h-1q12 -11 17 -19q0 -7 -12.5 -24.5t-21.5 -20.5z" />
<glyph unicode="&#xc9;" horiz-adv-x="395" d="M159 311v-232q19 -2 73 -2q100 0 141 1q-4 -41 -13 -57.5t-29 -21.5q-50 -2 -118 -2q-95 0 -153 6q-5 23 -8 43v474q0 86 -2 126l28 10q19 6 32 7h249q-2 -40 -7.5 -55t-19.5 -20q-29 -5 -95 -5h-78v-192h184q-6 -51 -15.5 -65.5t-33.5 -14.5h-135zM186 721 q-9 3 -17 18.5t-8 21.5q13 16 18 20q32 29 77 58t57 29q13 -2 24 -20t15 -36q0 -9 -14 -16q-24 -11 -79.5 -39.5t-72.5 -35.5z" />
<glyph unicode="&#xca;" horiz-adv-x="395" d="M159 311v-232q19 -2 73 -2q100 0 141 1q-4 -41 -13 -57.5t-29 -21.5q-50 -2 -118 -2q-95 0 -153 6q-5 23 -8 43v474q0 86 -2 126l28 10q19 6 32 7h249q-2 -40 -7.5 -55t-19.5 -20q-29 -5 -95 -5h-78v-192h184q-6 -51 -15.5 -65.5t-33.5 -14.5h-135zM213 866l6 -1 q41 -30 100 -91l20 -20q-6 -15 -20.5 -29.5t-27.5 -14.5q-18 0 -29 10h1q-13 10 -47 44l-12 12q-29 -33 -62 -58h1q-2 -2 -12 -6l-11 -1q-14 4 -27 14.5t-17 20.5q29 34 100 107q11 13 37 13z" />
<glyph unicode="&#xcb;" horiz-adv-x="395" d="M159 311v-232q19 -2 73 -2q100 0 141 1q-4 -41 -13 -57.5t-29 -21.5q-50 -2 -118 -2q-95 0 -153 6q-5 23 -8 43v474q0 86 -2 126l28 10q19 6 32 7h249q-2 -40 -7.5 -55t-19.5 -20q-29 -5 -95 -5h-78v-192h184q-6 -51 -15.5 -65.5t-33.5 -14.5h-135zM79 792q0 52 50 52 q26 0 35 -11.5t8 -38.5q-2 -56 -49 -56q-24 0 -34 13t-10 41zM246 792q0 52 50 52q26 0 35 -11.5t8 -38.5q-2 -56 -49 -56q-24 0 -34 13t-10 41z" />
<glyph unicode="&#xcc;" horiz-adv-x="217" d="M68 -3q-19 0 -19 24v119q0 28 0.5 92.5t0.5 99.5q0 20 -0.5 59.5t-0.5 58.5v92q0 76 -2 94q7 18 27.5 23.5t63.5 5.5q12 0 15.5 -15.5t3.5 -54.5v-124q0 -23 -0.5 -69t-0.5 -68q0 -23 0.5 -66.5t0.5 -63.5v-98q0 -22 0.5 -48t0.5 -30v-14q-13 -17 -90 -17zM146 725h-7 q-6 3 -74 41q-36 22 -77 42q-4 3 -11 12q0 9 5 19q14 23 24 26q7 17 24 17q10 0 58 -33.5t76 -59.5h-1q12 -11 17 -22q0 -7 -13 -23t-21 -19z" />
<glyph unicode="&#xcd;" horiz-adv-x="217" d="M69 -3q-19 0 -19 24v119q0 28 0.5 92.5t0.5 99.5q0 20 -0.5 59.5t-0.5 58.5v92q0 76 -2 94q7 18 27.5 23.5t63.5 5.5q12 0 15.5 -15.5t3.5 -54.5v-124q0 -23 -0.5 -69t-0.5 -68q0 -23 0.5 -66.5t0.5 -63.5v-98q0 -22 0.5 -48t0.5 -30v-14q-13 -17 -90 -17zM66 721 q-9 3 -17 18.5t-8 21.5q13 16 18 20q32 29 77 58t57 29q13 -2 24 -20t15 -36q0 -9 -14 -16q-24 -11 -79.5 -39.5t-72.5 -35.5z" />
<glyph unicode="&#xce;" horiz-adv-x="217" d="M69 -3q-19 0 -19 24v119q0 28 0.5 92.5t0.5 99.5q0 20 -0.5 59.5t-0.5 58.5v92q0 76 -2 94q7 18 27 23.5t64 5.5q11 0 14.5 -15.5t3.5 -54.5v-124q0 -23 -0.5 -69t-0.5 -68q0 -23 0.5 -66.5t0.5 -63.5v-98q0 -22 0.5 -48t0.5 -30v-14q-13 -17 -89 -17zM113 866l6 -1 q41 -30 100 -91l20 -20q-6 -15 -20.5 -29.5t-27.5 -14.5q-18 0 -29 10h1q-13 10 -47 44l-12 12q-29 -33 -62 -58h1q-2 -2 -12 -6l-11 -1q-14 4 -27 14.5t-17 20.5q29 34 100 107q11 13 37 13z" />
<glyph unicode="&#xcf;" horiz-adv-x="217" d="M69 -3q-19 0 -19 24v119q0 28 0.5 92.5t0.5 99.5q0 20 -0.5 59.5t-0.5 58.5v92q0 76 -2 94q7 18 27 23.5t64 5.5q11 0 14.5 -15.5t3.5 -54.5v-124q0 -23 -0.5 -69t-0.5 -68q0 -23 0.5 -66.5t0.5 -63.5v-98q0 -22 0.5 -48t0.5 -30v-14q-13 -17 -89 -17zM129 779 q0 24 15.5 40t43.5 16t42 -15.5t14 -38.5q0 -25 -16 -40.5t-42 -15.5q-57 0 -57 54zM-36 779q0 24 16 40t43 16q28 0 42 -15.5t14 -38.5q0 -26 -15.5 -41t-42.5 -15q-57 0 -57 54z" />
<glyph unicode="&#xd0;" horiz-adv-x="537" d="M213 665q82 0 139.5 -22.5t88.5 -65.5t44.5 -96.5t13.5 -124.5q0 -207 -92 -295q-71 -66 -191 -66q-75 0 -163 11v310h-59q1 42 8 59.5t25 17.5h26v192q0 50 15 71q81 9 145 9zM219 75q165 0 165 281q0 109 -31 161.5t-96 63.5q-27 6 -57 6t-41 -1v-193h123 q-1 -43 -7 -60t-27 -17h-89v-238q27 -3 60 -3z" />
<glyph unicode="&#xd1;" horiz-adv-x="567" d="M302 399l33 -61q30 -58 67 -137q-3 67 -3 153v241q0 34 10 55q17 11 30.5 13t63.5 2q-2 -118 -2 -210v-441q-27 -20 -53 -20q-30 0 -48 7q-24 46 -89 157v-1l-53 93l-40 74l-45 95q-2 4 -9 19.5l-10 22.5q0 1 -1 2l-2 2q2 -44 5 -164v-233q0 -32 -9 -53 q-12 -12 -28.5 -15t-67.5 -3q2 114 2 208v420q-12 14 -12 18t2 10q20 12 76 12q17 0 39 -13q14 -29 90 -159l28 -50q3 -6 26 -44zM236 785q-23 -5 -37 -38q-5 -11 -11 -11q-16 0 -41 25q32 94 98 94q8 0 15 -2t13.5 -6.5t10.5 -8t11.5 -11l10.5 -10.5q16 -16 26 -16 q27 0 38 39q4 10 12 10q16 0 34 -30q-5 -34 -30 -62t-61 -28q-12 0 -22 4.5t-14.5 8.5t-14 14.5t-12.5 13.5q-14 14 -26 14z" />
<glyph unicode="&#xd2;" horiz-adv-x="572" d="M330 739q-11 4 -36.5 18.5l-59.5 34l-52 29.5q-8 5 -11 9q0 10 4 18q3 8 10.5 15.5t13.5 7.5q6 18 16 18t55.5 -33.5t73.5 -60.5q8 -9 13 -16q0 -7 -10 -22.5t-17 -17.5zM129 324q0 140 41.5 209.5t114.5 69.5h1q72 0 115.5 -67t43.5 -202q0 -139 -41 -207t-116 -68 q-72 0 -115.5 67.5t-43.5 197.5zM289 677q-125 0 -191 -88.5t-66 -259.5q0 -344 251 -344q128 0 192.5 91t64.5 261q0 164 -62.5 252t-188.5 88z" />
<glyph unicode="&#xd3;" horiz-adv-x="572" d="M129 324q0 140 41.5 209.5t114.5 69.5h1q72 0 115.5 -67t43.5 -202q0 -139 -41 -207t-116 -68q-72 0 -115.5 67.5t-43.5 197.5zM289 677q-125 0 -191 -88.5t-66 -259.5q0 -344 251 -344q128 0 192.5 91t64.5 261q0 164 -62.5 252t-188.5 88zM248 719q-9 3 -17 18.5 t-8 21.5q13 16 18 20q32 29 77 58t57 29q13 -2 24 -20t15 -36q0 -9 -14 -16q-24 -11 -79.5 -39.5t-72.5 -35.5z" />
<glyph unicode="&#xd4;" horiz-adv-x="572" d="M129 324q0 140 41.5 209.5t114.5 69.5h1q72 0 115.5 -67t43.5 -202q0 -139 -41 -207t-116 -68q-72 0 -115.5 67.5t-43.5 197.5zM289 677q-125 0 -191 -88.5t-66 -259.5q0 -344 251 -344q128 0 192.5 91t64.5 261q0 164 -62.5 252t-188.5 88zM296 871q18 -13 118 -109 q-5 -14 -17 -26.5t-22 -12.5q-11 0 -22 9q-12 10 -38.5 36.5l-28.5 28.5q-34 -41 -68 -67q-4 -4 -8 -5l-5 -1q-30 8 -38 30q38 44 100 106q7 11 29 11z" />
<glyph unicode="&#xd5;" horiz-adv-x="582" d="M141 324q0 136 38.5 203.5t105.5 67.5t107.5 -65t40.5 -196q0 -266 -145 -266q-67 0 -107 65t-40 191zM289 677q-128 0 -195.5 -88.5t-67.5 -259.5q0 -344 257 -344q131 0 197 91t66 261q0 164 -64 252t-193 88zM241 783q-23 -5 -37 -38q-6 -11 -11 -11q-16 0 -41 25 q32 94 98 94q8 0 15 -2t13.5 -6.5t10.5 -8t11.5 -11l10.5 -10.5q16 -16 26 -16q27 0 38 39q4 10 12 10q16 0 34 -30q-5 -34 -30 -62t-61 -28q-12 0 -22 4.5t-14.5 8.5t-14 14.5t-12.5 13.5q-14 14 -26 14z" />
<glyph unicode="&#xd6;" horiz-adv-x="582" d="M142 324q0 136 38.5 203.5t105.5 67.5t107.5 -65t40.5 -196q0 -266 -145 -266q-67 0 -107 65t-40 191zM290 677q-128 0 -195.5 -88.5t-67.5 -259.5q0 -344 257 -344q131 0 197 91t66 261q0 164 -64 252t-193 88zM161 792q0 52 50 52q26 0 35 -11.5t8 -38.5 q-2 -56 -49 -56q-24 0 -34 13t-10 41zM328 792q0 52 50 52q26 0 35 -11.5t8 -38.5q-2 -56 -49 -56q-24 0 -34 13t-10 41z" />
<glyph unicode="&#xd7;" horiz-adv-x="499" d="M72 138l118 126l-57 61q-20 22 -63 65q4 18 15 33q20 23 48 23l114 -122q9 9 24 25.5t19 21.5l51 53l3 3q19 19 30 19q12 0 25 -10h-1q19 -14 33 -37l-66 -70l-60 -64l51 -54q28 -28 55 -58v1q9 -9 17 -25q-7 -15 -18 -25q-21 -23 -49 -23l-115 123l-113 -123 q-28 0 -48 24q-11 14 -13 33z" />
<glyph unicode="&#xd8;" horiz-adv-x="603" d="M114 -26l-2 -1q-6 -5 -18 -5q-9 0 -23 7q-19 17 -23 30q14 29 49 88q-61 84 -61 235q0 198 93 286q65 63 170 63q89 0 143 -40q10 17 24 36q8 15 20 19q17 0 34.5 -13t18.5 -24q-8 -22 -44 -88q61 -87 61 -230q0 -352 -262 -352q-88 0 -146 42q-6 -11 -18 -28.5 t-16 -24.5zM445 336q0 87 -23 144l-74 -135q-87 -162 -138 -242q36 -35 84 -35q72 0 111.5 61.5t39.5 206.5zM149 321q0 -85 21 -138l211 379q-33 33 -86 33q-66 0 -106 -68.5t-40 -205.5z" />
<glyph unicode="&#xd9;" horiz-adv-x="552" d="M313 731q-13 5 -70 38t-78 44q-10 6 -12 10q0 10 9 25.5t19 15.5q8 17 16 17q10 0 56 -33.5t73 -60.5q10 -8 13 -16v-1q0 -5 -7 -17q-11 -20 -19 -22zM280 57q73 0 108 22q20 97 20 238l1 274q0 34 10 62q11 7 24 9t52 2q-2 -104 -2 -188v-159q0 -157 -27 -270 q-51 -62 -192 -62q-107 0 -153.5 55t-58.5 158q-5 55 -5 106v190q0 75 -2 157q10 13 82 13q10 -18 10 -75v-277q0 -65 7 -111q12 -71 41 -107.5t85 -36.5z" />
<glyph unicode="&#xda;" horiz-adv-x="552" d="M280 57q73 0 108 22q20 97 20 238l1 274q0 34 10 62q11 7 24 9t52 2q-2 -104 -2 -188v-159q0 -157 -27 -270q-51 -62 -192 -62q-107 0 -153.5 55t-58.5 158q-5 55 -5 106v190q0 75 -2 157q10 13 82 13q10 -18 10 -75v-277q0 -65 7 -111q12 -71 41 -107.5t85 -36.5z M231 716q-9 3 -17 18.5t-8 21.5q13 16 18 20q32 29 77 58t57 29q13 -2 24 -20t15 -36q0 -9 -14 -16q-24 -11 -79.5 -39.5t-72.5 -35.5z" />
<glyph unicode="&#xdb;" horiz-adv-x="552" d="M280 57q73 0 108 22q20 97 20 238l1 274q0 34 10 62q11 7 24 9t52 2q-2 -104 -2 -188v-159q0 -157 -27 -270q-51 -62 -192 -62q-107 0 -153.5 55t-58.5 158q-5 55 -5 106v190q0 75 -2 157q10 13 82 13q10 -18 10 -75v-277q0 -65 7 -111q12 -71 41 -107.5t85 -36.5z M285 867q18 -13 118 -109q-5 -14 -17 -26.5t-22 -12.5q-12 0 -22 9q-12 10 -38.5 36.5l-28.5 28.5q-34 -41 -68 -67q-3 -4 -8 -5l-5 -1q-30 8 -38 30q38 44 100 106q7 11 29 11z" />
<glyph unicode="&#xdc;" horiz-adv-x="562" d="M280 66q70 0 101 21l-4 -3q19 98 19 233l1 271q0 33 11 63q14 9 30.5 11.5t63.5 2.5q-2 -104 -2 -191v-157q0 -155 -27 -266q-55 -66 -199 -66q-110 0 -158.5 55.5t-60.5 159.5q-5 55 -5 105v187q0 73 -2 155q14 18 98 18q13 -23 13 -79v-273q0 -64 7 -109 q24 -138 114 -138zM152 792q0 52 50 52q26 0 35 -11.5t8 -38.5q-2 -56 -49 -56q-24 0 -34 13t-10 41zM319 792q0 52 50 52q26 0 35 -11.5t8 -38.5q-2 -56 -49 -56q-24 0 -34 13t-10 41z" />
<glyph unicode="&#xdd;" horiz-adv-x="472" d="M235 395l121 261q22 8 40 8q15 0 55 -4q3 -9 3 -16t-10 -33l-1 -1l-1 -4q-16 -37 -79 -151q-46 -78 -65 -123q-10 -27 -13 -48v-143q0 -17 0.5 -44t0.5 -37v-46q-9 -11 -27.5 -14.5t-70.5 -3.5q-10 24 -10 49v232q0 17 -1 21q-24 58 -53 113l-17.5 34.5l-21.5 42 l-19 36.5l-62 122q0 7 10.5 9.5t45.5 2.5h58q15 -36 60 -133zM212 702h-6q-11 4 -25 25q-7 12 -7 19q7 11 20 24q34 29 79.5 58t60.5 29q16 -3 30 -22t18 -37q0 -10 -20 -21q-14 -6 -43.5 -21.5l-37.5 -19.5h1q-53 -28 -70 -34z" />
<glyph unicode="&#xdf;" horiz-adv-x="507" d="M374 131q-5 33 -25 57q-15 18 -63 64l-9 9q-53 53 -53 103q0 64 97 125l-2 -1q20 22 20 49q0 31 -15 50t-42 23q-14 3 -27 3q-2 0 -20 -2q-63 -12 -72 -120q-3 -48 -3 -106q0 -30 0.5 -84.5t0.5 -80.5q0 -111 1 -165q0 -37 -3 -51q-18 -14 -63 -14q-14 0 -24.5 2.5 t-15 5.5t-4.5 4v2q0 2 1 5q3 21 3 33v57q0 9 0.5 28t0.5 29v116q0 20 -0.5 61t-0.5 62q-28 31 -28 77q6 6 28 17v1h1q0 21 1 27v-1q9 97 89 145q49 28 114 28q13 0 33 -2q74 -7 112.5 -47.5t39.5 -98.5q0 -49 -34 -79l-14 -7h2q-21 -14 -34 -24t-23.5 -25.5t-10.5 -30.5 q0 -28 36 -60h-1q2 -1 6 -5t6 -5q33 -26 49 -42q57 -55 57 -122q0 -72 -48 -112.5t-125 -40.5q-45 0 -77 12t-43 28q1 23 14 43q9 14 32 14q35 -20 67 -20q31 0 52 18.5t17 47.5z" />
<glyph unicode="&#xe0;" horiz-adv-x="405" d="M49 410l1 -1q-2 6 -2 13q0 6 3 13q19 17 63 33t92 17q19 0 35 -1q58 -4 82 -39t24 -103v-44q0 -76 -1 -113q0 -12 -0.5 -45t-0.5 -41v-12.5t7 -18.5t21 -8q-2 -28 -2 -43q-18 -27 -62 -28q-33 0 -60 29l-22 -15q-28 -14 -77 -14q-56 0 -94.5 34.5t-38.5 100.5q0 43 18 75 t47 49.5t55.5 26.5t54.5 12q9 1 29 1q16 0 22 -1v49q0 35 -7 49.5t-30 14.5q-34 0 -100 -25q-18 -8 -37 -8q-15 16 -20 43zM241 107q2 12 2 47v66h-10q-11 0 -31 -2h1q-80 -15 -80 -86q0 -62 43 -65h6q19 0 39 8.5t29 20.5l-1 -1l1 1q0 2 0.5 5.5t0.5 5.5zM170 734 q-16 0 -33.5 -16.5t-17.5 -30.5q2 -3 11 -12l118 -115q11 2 21 13.5t10 23.5q0 5 -1 8q-90 129 -108 129z" />
<glyph unicode="&#xe1;" horiz-adv-x="405" d="M49 410l1 -1q-2 6 -2 13q0 6 3 13q19 17 63 33t92 17q19 0 35 -1q58 -4 82 -39t24 -103v-44q0 -76 -1 -113q0 -12 -0.5 -45t-0.5 -41v-12.5t7 -18.5t21 -8q-2 -28 -2 -43q-18 -27 -62 -28q-33 0 -60 29l-22 -15q-28 -14 -77 -14q-56 0 -94.5 34.5t-38.5 100.5q0 43 18 75 t47 49.5t55.5 26.5t54.5 12q9 1 29 1q16 0 22 -1v49q0 35 -7 49.5t-30 14.5q-34 0 -100 -25q-18 -8 -37 -8q-15 16 -20 43zM241 107q2 12 2 47v66h-10q-11 0 -31 -2h1q-80 -15 -80 -86q0 -62 43 -65h6q19 0 39 8.5t29 20.5l-1 -1l1 1q0 2 0.5 5.5t0.5 5.5zM251 735 q19 0 39.5 -18t20.5 -34q-2 -3 -14 -15l-118 -116q-17 4 -31.5 17t-14.5 26q0 3 2 9q94 131 116 131z" />
<glyph unicode="&#xe2;" horiz-adv-x="405" d="M49 410l1 -1q-2 6 -2 13q0 6 3 13q19 17 63 33t92 17q19 0 35 -1q58 -4 82 -39t24 -103v-44q0 -76 -1 -113q0 -12 -0.5 -45t-0.5 -41v-12.5t7 -18.5t21 -8q-2 -28 -2 -43q-18 -27 -62 -28q-33 0 -60 29l-22 -15q-28 -14 -77 -14q-56 0 -94.5 34.5t-38.5 100.5q0 43 18 75 t47 49.5t55.5 26.5t54.5 12q9 1 29 1q16 0 22 -1v49q0 35 -7 49.5t-30 14.5q-34 0 -100 -25q-18 -8 -37 -8q-15 16 -20 43zM241 107q2 12 2 47v66h-10q-11 0 -31 -2h1q-80 -15 -80 -86q0 -62 43 -65h6q19 0 39 8.5t29 20.5l-1 -1l1 1q0 2 0.5 5.5t0.5 5.5zM209 734 q74 -80 108 -136q-22 -34 -42 -34q-9 0 -19 12q-42 50 -60 81q-18 -31 -52 -76q-12 -16 -19 -16q-31 12 -39 25q12 25 79 120q11 13 20 18q13 6 24 6z" />
<glyph unicode="&#xe3;" horiz-adv-x="407" d="M49 410l1 -1q-2 6 -2 13q0 6 3 13q19 17 63 33t92 17q19 0 35 -1q58 -4 82 -39t24 -103v-44q0 -76 -1 -113q0 -12 -0.5 -45t-0.5 -41v-12.5t7 -18.5t21 -8q-2 -28 -2 -43q-18 -27 -62 -28q-33 0 -60 29l-22 -15q-28 -14 -77 -14q-56 0 -94.5 34.5t-38.5 100.5q0 43 18 75 t47 49.5t55.5 26.5t54.5 12q9 1 29 1q16 0 22 -1v49q0 35 -7 49.5t-30 14.5q-34 0 -100 -25q-18 -8 -37 -8q-15 16 -20 43zM241 107q2 12 2 47v66h-10q-11 0 -31 -2h1q-80 -15 -80 -86q0 -62 43 -65h6q19 0 39 8.5t29 20.5l-1 -1l1 1q0 2 0.5 5.5t0.5 5.5zM151 625 q-23 -5 -37 -38q-6 -11 -11 -11q-16 0 -41 25q32 94 98 94q8 0 15 -2t13.5 -6.5t10.5 -8t11.5 -11l10.5 -10.5q16 -16 26 -16q27 0 38 39q4 10 12 10q16 0 34 -30q-5 -34 -30 -62t-61 -28q-12 0 -22 4.5t-14.5 8.5t-14 14.5t-12.5 13.5q-14 14 -26 14z" />
<glyph unicode="&#xe4;" horiz-adv-x="405" d="M49 410l1 -1q-2 6 -2 13q0 6 3 13q19 17 63 33t92 17q19 0 35 -1q58 -4 82 -39t24 -103v-44q0 -76 -1 -113q0 -12 -0.5 -45t-0.5 -41v-12.5t7 -18.5t21 -8q-2 -28 -2 -43q-18 -27 -62 -28q-33 0 -60 29l-22 -15q-28 -14 -77 -14q-56 0 -94.5 34.5t-38.5 100.5q0 43 18 75 t47 49.5t55.5 26.5t54.5 12q9 1 29 1q16 0 22 -1v49q0 35 -7 49.5t-30 14.5q-34 0 -100 -25q-18 -8 -37 -8q-15 16 -20 43zM241 107q2 12 2 47v66h-10q-11 0 -31 -2h1q-80 -15 -80 -86q0 -62 43 -65h6q19 0 39 8.5t29 20.5l-1 -1l1 1q0 2 0.5 5.5t0.5 5.5zM68 625 q0 52 50 52q26 0 35 -11.5t8 -38.5q-2 -56 -49 -56q-24 0 -34 13t-10 41zM225 625q0 52 50 52q26 0 35 -11.5t8 -38.5q-2 -56 -49 -56q-24 0 -34 13t-10 41z" />
<glyph unicode="&#xe5;" horiz-adv-x="405" d="M49 410l1 -1q-2 6 -2 13q0 6 3 13q19 17 63 33t92 17q19 0 35 -1q58 -4 82 -39t24 -103v-44q0 -76 -1 -113q0 -12 -0.5 -45t-0.5 -41v-12.5t7 -18.5t21 -8q-2 -28 -2 -43q-18 -27 -62 -28q-33 0 -60 29l-22 -15q-28 -14 -77 -14q-56 0 -94.5 34.5t-38.5 100.5q0 43 18 75 t47 49.5t55.5 26.5t54.5 12q9 1 29 1q16 0 22 -1v49q0 35 -7 49.5t-30 14.5q-34 0 -100 -25q-18 -8 -37 -8q-15 16 -20 43zM241 107q2 12 2 47v66h-10q-11 0 -31 -2h1q-80 -15 -80 -86q0 -62 43 -65h6q19 0 39 8.5t29 20.5l-1 -1l1 1q0 2 0.5 5.5t0.5 5.5zM96 650 q0 42 28.5 71.5t71.5 29.5h1q43 0 71 -30t28 -70q0 -43 -29 -71.5t-72 -28.5q-41 0 -70 28t-29 71zM146 651q0 -23 14.5 -38.5t36.5 -15.5t36 15.5t14 37.5t-14 38.5t-37 16.5q-22 0 -36 -16t-14 -38z" />
<glyph unicode="&#xe6;" horiz-adv-x="635" d="M515 210q-32 -2 -55 -2q-67 0 -111 4q1 -77 28.5 -109.5t80.5 -32.5q61 0 115 28q6 -17 9 -49q-1 -14 -16 -28.5t-33 -20.5q-39 -13 -94 -13q-90 0 -133 49q-60 -49 -163 -49q-55 2 -87.5 37t-32.5 104q0 70 51.5 118.5t125.5 48.5q39 0 45 -1v23q0 16 -2 36 q-7 50 -61 50q-32 0 -87 -24v1q-23 -12 -42 -13q-19 28 -19 49q0 11 4 18q21 19 68 35t101 16q82 0 110 -52q46 52 127 52q76 0 114.5 -45.5t40.5 -121.5q0 -53 -7 -82q-9 -8 -32.5 -16t-44.5 -10zM177 66q44 0 74 34q-7 61 -7 127h-14q-11 0 -17 -1q-83 -13 -83 -92 q0 -68 47 -68zM433 410q-31 0 -53.5 -30.5t-28.5 -96.5q57 -5 102 -5q26 0 34 1q6 7 7 22q0 57 -13.5 83t-47.5 26z" />
<glyph unicode="&#xe7;" horiz-adv-x="383" d="M357 442v-1q0 -27 -16 -54h-12q-12 0 -33 7q-27 12 -53 12q-6 0 -11 -1q-99 -9 -99 -172q0 -167 116 -167q44 0 92 24q9 -27 9 -38q-2 -24 -26 -43q-33 -23 -93 -23q-46 0 -80 10t-64.5 35t-46.5 74.5t-16 122.5q0 139 75 208q53 49 142 49q42 0 76.5 -15.5t39.5 -27.5z M163 -29q39 2 63 -4q33 -8 54 -28.5t21 -48.5q0 -81 -133 -102q-10 1 -16.5 12t-6.5 19q0 10 13 13q44 14 61 26t17 32q0 19 -26 28.5t-59 9.5q5 33 12 43z" />
<glyph unicode="&#xe8;" horiz-adv-x="406" d="M237 70q62 0 116 29q8 -24 10 -50q-1 -15 -21 -30.5t-44 -21.5h1q-37 -10 -78 -10q-92 0 -141 49q-55 56 -55 183q0 138 53.5 202t145.5 64q69 0 107.5 -38t44.5 -105q2 -30 2 -48q0 -34 -5 -59q-23 -19 -78 -27q-47 -6 -129 -6h-35q1 -71 28.5 -101.5t77.5 -30.5z M214 411h-4q-29 -4 -51 -38.5t-26 -98.5h28q66 0 96 3q13 3 15 4q4 14 4 30q0 2 -0.5 5.5t-0.5 5.5v10q-7 79 -61 79zM177 734q-16 0 -33.5 -16.5t-17.5 -30.5q2 -3 11 -12l118 -115q11 2 21 13.5t10 23.5q0 5 -1 8q-90 129 -108 129z" />
<glyph unicode="&#xe9;" horiz-adv-x="406" d="M237 70q62 0 116 29q8 -24 10 -50q-1 -15 -21 -30.5t-44 -21.5h1q-37 -10 -78 -10q-92 0 -141 49q-55 56 -55 183q0 138 53.5 202t145.5 64q69 0 107.5 -38t44.5 -105q2 -30 2 -48q0 -34 -5 -59q-23 -19 -78 -27q-47 -6 -129 -6h-35q1 -71 28.5 -101.5t77.5 -30.5z M214 411h-4q-29 -4 -51 -38.5t-26 -98.5h28q66 0 96 3q13 3 15 4q4 14 4 30q0 2 -0.5 5.5t-0.5 5.5v10q-7 79 -61 79zM265 734q19 0 39.5 -18t20.5 -34q-2 -3 -14 -15l-118 -116q-17 4 -31.5 17t-14.5 26q0 3 2 9q94 131 116 131z" />
<glyph unicode="&#xea;" horiz-adv-x="406" d="M237 70q62 0 116 29q8 -24 10 -50q-1 -15 -21 -30.5t-44 -21.5h1q-37 -10 -78 -10q-92 0 -141 49q-55 56 -55 183q0 138 53.5 202t145.5 64q69 0 107.5 -38t44.5 -105q2 -30 2 -48q0 -34 -5 -59q-23 -19 -78 -27q-47 -6 -129 -6h-35q1 -71 28.5 -101.5t77.5 -30.5z M214 411h-4q-29 -4 -51 -38.5t-26 -98.5h28q66 0 96 3q13 3 15 4q4 14 4 30q0 2 -0.5 5.5t-0.5 5.5v10q-7 79 -61 79zM223 734q74 -80 108 -136q-22 -34 -42 -34q-9 0 -19 12q-42 50 -60 81q-18 -31 -52 -76q-12 -16 -19 -16q-31 12 -39 25q12 25 79 120q11 13 20 18 q13 6 24 6z" />
<glyph unicode="&#xeb;" horiz-adv-x="406" d="M237 70q62 0 116 29q8 -24 10 -50q-1 -15 -21 -30.5t-44 -21.5h1q-37 -10 -78 -10q-92 0 -141 49q-55 56 -55 183q0 138 53.5 202t145.5 64q69 0 107.5 -38t44.5 -105q2 -30 2 -48q0 -34 -5 -59q-23 -19 -78 -27q-47 -6 -129 -6h-35q1 -71 28.5 -101.5t77.5 -30.5z M214 411h-4q-29 -4 -51 -38.5t-26 -98.5h28q66 0 96 3q13 3 15 4q4 14 4 30q0 2 -0.5 5.5t-0.5 5.5v10q-7 79 -61 79zM89 625q0 52 50 52q26 0 35 -11.5t8 -38.5q-2 -56 -49 -56q-24 0 -34 13t-10 41zM246 625q0 52 50 52q26 0 35 -11.5t8 -38.5q-2 -56 -49 -56 q-24 0 -34 13t-10 41z" />
<glyph unicode="&#xec;" horiz-adv-x="212" d="M136 475l9 -3q9 -18 9 -72v-335q0 -33 -14 -55q-6 -8 -21.5 -9.5t-72.5 -3.5v82q0 14 0.5 45t0.5 47v174q0 50 -2 102q13 28 91 28zM39 734q-16 0 -33.5 -16.5t-17.5 -30.5q2 -3 11 -12l118 -115q11 2 21 13.5t10 23.5q0 5 -1 8q-90 129 -108 129z" />
<glyph unicode="&#xed;" horiz-adv-x="212" d="M137 475l9 -3q9 -18 9 -72v-335q0 -33 -14 -55q-6 -8 -21.5 -9.5t-72.5 -3.5v82q0 14 0.5 45t0.5 47v174q0 50 -2 102q13 28 91 28zM158 734q19 0 39.5 -18t20.5 -34q-2 -3 -14 -15l-118 -116q-17 4 -31.5 17t-14.5 26q0 3 2 9q94 131 116 131z" />
<glyph unicode="&#xee;" horiz-adv-x="212" d="M137 475l8 -3q9 -18 9 -72v-335q0 -33 -14 -55q-5 -8 -20.5 -9.5t-72.5 -3.5v82q0 14 0.5 45t0.5 47v174q0 50 -2 102q13 28 91 28zM115 734q74 -80 108 -136q-22 -34 -42 -34q-9 0 -19 12q-42 50 -60 81q-18 -31 -52 -76q-12 -16 -19 -16q-31 12 -39 25q12 25 79 120 q11 13 20 18q13 6 24 6z" />
<glyph unicode="&#xef;" horiz-adv-x="212" d="M137 475l8 -3q9 -18 9 -72v-335q0 -33 -14 -55q-5 -8 -20.5 -9.5t-72.5 -3.5v82q0 14 0.5 45t0.5 47v174q0 50 -2 102q13 28 91 28zM125 616q0 56 59 56q31 0 42 -12.5t10 -41.5q-2 -60 -58 -60q-29 0 -41 14t-12 44zM-30 616q0 56 59 56q31 0 42 -12.5t10 -41.5 q-2 -60 -58 -60q-53 0 -53 58z" />
<glyph unicode="&#xf0;" horiz-adv-x="460" d="M367 665q22 10 32 0h-2q11 -5 11 -24q0 -24 -4.5 -35t-20.5 -21q-36 -22 -43 -27q42 -56 68 -136t26 -165q0 -113 -58 -197q-54 -73 -146 -73q-94 0 -150 69q-55 74 -55 164q0 103 70 178q64 66 151 66q30 0 53 -6q-14 32 -33 58l-45 -26q-38 -22 -57 -32q-19 -9 -31 -1 q-11 9 -11 30q0 23 17 46l70 39q-56 40 -126 49l-9 26l20 27q12 15 32 15q30 0 79.5 -22.5t83.5 -50.5l9 6l9 6q2 1 9 5t9 5h-2q2 1 6 3.5t6 4.5q24 17 32 19zM136 226q0 -84 33.5 -121.5t72.5 -37.5q82 0 82 192q0 56 -11 102l2 -2q-25 29 -68 29q-45 0 -78 -42 q-33 -44 -33 -120z" />
<glyph unicode="&#xf1;" horiz-adv-x="462" d="M231 402q-43 0 -78 -39l3 3v-308q0 -31 -12 -48q-10 -8 -21.5 -10t-47.5 -3h-26q2 106 2 197v168q0 44 -11 75q11 12 42 25q6 2 14 2q26 0 36 -21q28 20 59 30q33 11 65 11q88 0 118.5 -42.5t30.5 -135.5v-151q0 -64 2 -142q-17 -16 -97 -16q-11 21 -11 45v262 q0 54 -15 76t-53 22zM181 623q-23 -5 -37 -38q-6 -11 -11 -11q-16 0 -41 25q32 94 98 94q8 0 15 -2t13.5 -6.5t10.5 -8t11.5 -11l10.5 -10.5q16 -16 26 -16q27 0 38 39q4 10 12 10q16 0 34 -30q-5 -34 -30 -62t-61 -28q-12 0 -22 4.5t-14.5 8.5t-14 14.5t-12.5 13.5 q-14 14 -26 14z" />
<glyph unicode="&#xf2;" horiz-adv-x="459" d="M423 240q0 -122 -55.5 -188t-144.5 -66q-200 0 -200 248q0 125 55 188t148 63q197 0 197 -245zM134 238q0 -178 91 -178q39 0 63.5 42t24.5 135q0 172 -90 172q-39 0 -64 -42t-25 -129zM171 734q-16 0 -33.5 -16.5t-17.5 -30.5q2 -3 11 -12l118 -115q11 2 21 13.5 t10 23.5q0 5 -1 8q-90 129 -108 129z" />
<glyph unicode="&#xf3;" horiz-adv-x="459" d="M423 240q0 -122 -55.5 -188t-144.5 -66q-200 0 -200 248q0 125 55 188t148 63q197 0 197 -245zM134 238q0 -178 91 -178q39 0 63.5 42t24.5 135q0 172 -90 172q-39 0 -64 -42t-25 -129zM280 734q19 0 39.5 -18t20.5 -34q-2 -3 -14 -15l-118 -116q-17 4 -31.5 17t-14.5 26 q0 3 2 9q94 131 116 131z" />
<glyph unicode="&#xf4;" horiz-adv-x="459" d="M423 240q0 -122 -55.5 -188t-144.5 -66q-200 0 -200 248q0 125 55 188t148 63q197 0 197 -245zM134 238q0 -178 91 -178q39 0 63.5 42t24.5 135q0 172 -90 172q-39 0 -64 -42t-25 -129zM241 734q74 -80 108 -136q-22 -34 -42 -34q-9 0 -19 12q-42 50 -60 81 q-18 -31 -52 -76q-12 -16 -19 -16q-31 12 -39 25q12 25 79 120q11 13 20 18q13 6 24 6z" />
<glyph unicode="&#xf5;" horiz-adv-x="459" d="M423 240q0 -122 -55.5 -188t-144.5 -66q-200 0 -200 248q0 125 55 188t148 63q197 0 197 -245zM134 238q0 -178 91 -178q39 0 63.5 42t24.5 135q0 172 -90 172q-39 0 -64 -42t-25 -129zM195 596q-12 12 -17 13q-15 -5 -29 -34q-8 -14 -20 -14q-21 0 -50 29q33 98 107 98 q27 0 58 -29l9 -9q13 -15 18 -15q17 0 27 30q8 18 23 18q12 0 25.5 -12.5t17.5 -20.5q-5 -36 -32.5 -65.5t-67.5 -29.5q-14 0 -26.5 6t-18.5 11.5t-18 18.5z" />
<glyph unicode="&#xf6;" horiz-adv-x="459" d="M423 240q0 -122 -55.5 -188t-144.5 -66q-200 0 -200 248q0 125 55 188t148 63q197 0 197 -245zM134 238q0 -178 91 -178q39 0 63.5 42t24.5 135q0 172 -90 172q-39 0 -64 -42t-25 -129zM89 616q0 56 59 56q31 0 42 -12.5t10 -41.5t-13.5 -44.5t-44.5 -15.5q-53 0 -53 58z M244 616q0 56 59 56q31 0 42 -12.5t10 -41.5q-2 -60 -58 -60q-29 0 -41 14t-12 44z" />
<glyph unicode="&#xf7;" horiz-adv-x="499" d="M51 228l-10 5q1 38 8 55t25 17h384q0 -42 -7 -59.5t-27 -17.5h-373zM190 417q0 56 61 56q33 0 44.5 -12.5t10.5 -41.5t-14 -44t-47 -15q-31 0 -43 13.5t-12 43.5zM190 114q0 57 61 57q33 0 44.5 -13t10.5 -42t-14 -44t-47 -15q-31 0 -43 13.5t-12 43.5z" />
<glyph unicode="&#xf8;" horiz-adv-x="474" d="M235 -15q-75 0 -114 29l-12 -18q-23 -37 -37 -33q-14 2 -26.5 12.5t-15.5 23.5q0 1 44 73q-41 62 -41 162q0 121 64 190q57 60 139 60q69 0 107 -28l7 10q2 3 6 8.5t6 8.5t5 7t5.5 6.5t5.5 4.5t6 3t6 1q15 -2 28.5 -13.5t15.5 -26.5l-42 -73q41 -59 41 -154 q0 -112 -58 -187q-52 -66 -140 -66zM235 59q40 0 65 42.5t25 133.5q0 41 -9 71l-138 -214q22 -33 57 -33zM141 235q0 -43 8 -66l105 162q6 9 16 26t16 26q-19 26 -53 26q-41 0 -66.5 -43t-25.5 -131z" />
<glyph unicode="&#xf9;" horiz-adv-x="465" d="M297 102v312q0 32 12 48q10 8 21.5 10t47.5 3h26q-2 -106 -2 -197v-168q0 -44 11 -75q-11 -11 -42 -25q-6 -2 -14 -2q-25 0 -36 22q-27 -20 -59 -31q-33 -11 -65 -11q-86 4 -116 44.5t-32 128.5l9 163q0 60 -2 132q16 19 100 19q9 -31 9 -101l-10 -200q0 -60 16 -81.5 t50 -21.5q47 -3 76 31zM201 734q-16 0 -33.5 -16.5t-17.5 -30.5q2 -3 11 -12l118 -115q11 2 21 13.5t10 23.5q0 5 -1 8q-90 129 -108 129z" />
<glyph unicode="&#xfa;" horiz-adv-x="465" d="M297 102v312q0 32 12 48q10 8 21.5 10t47.5 3h26q-2 -106 -2 -197v-168q0 -44 11 -75q-11 -11 -42 -25q-6 -2 -14 -2q-25 0 -36 22q-27 -20 -59 -31q-33 -11 -65 -11q-86 4 -116 44.5t-32 128.5l9 163q0 60 -2 132q16 19 100 19q9 -31 9 -101l-10 -200q0 -60 16 -81.5 t50 -21.5q47 -3 76 31zM278 734q19 0 39.5 -18t20.5 -34q-2 -3 -14 -15l-118 -116q-17 4 -31.5 17t-14.5 26q0 3 2 9q94 131 116 131z" />
<glyph unicode="&#xfb;" horiz-adv-x="465" d="M297 102v312q0 32 12 48q10 8 21.5 10t47.5 3h26q-2 -106 -2 -197v-168q0 -44 11 -75q-11 -11 -42 -25q-6 -2 -14 -2q-25 0 -36 22q-27 -20 -59 -31q-33 -11 -65 -11q-86 4 -116 44.5t-32 128.5l9 163q0 60 -2 132q16 19 100 19q9 -31 9 -101l-10 -200q0 -60 16 -81.5 t50 -21.5q47 -3 76 31zM239 734q74 -80 108 -136q-22 -34 -42 -34q-9 0 -19 12q-42 50 -60 81q-18 -31 -52 -76q-12 -16 -19 -16q-31 12 -39 25q12 25 79 120q11 13 20 18q13 6 24 6z" />
<glyph unicode="&#xfc;" horiz-adv-x="465" d="M297 102v312q0 32 12 48q10 8 21.5 10t47.5 3h26q-2 -106 -2 -197v-168q0 -44 11 -75q-11 -11 -42 -25q-6 -2 -14 -2q-25 0 -36 22q-27 -20 -59 -31q-33 -11 -65 -11q-86 4 -116 44.5t-32 128.5l9 163q0 60 -2 132q16 19 100 19q9 -31 9 -101l-10 -200q0 -60 16 -81.5 t50 -21.5q47 -3 76 31zM103 625q0 52 50 52q26 0 35 -11.5t8 -38.5q-2 -56 -49 -56q-24 0 -34 13t-10 41zM260 625q0 52 50 52q26 0 35 -11.5t8 -38.5q-2 -56 -49 -56q-24 0 -34 13t-10 41z" />
<glyph unicode="&#xfd;" horiz-adv-x="401" d="M99 478q8 0 17.5 -14.5t12.5 -28.5q15 -46 56 -191q3 -11 23 -91q0 -3 1 -4q11 46 19 86q0 1 1 6t2 7q11 49 29 122l22 92q16 13 39 13q19 0 29 -1q3 0 11.5 -0.5t10.5 -0.5q7 -14 7 -25t-5 -28q-56 -225 -130 -432q-72 -184 -157 -184q-72 0 -84 36l7 31q11 4 38 4t44 7 l-1 -1q17 9 36 54.5t29 94.5l-1 1q-10 13 -21 47q-87 281 -120 373q6 15 24.5 21t60.5 6zM197 526l-9 -1q-16 3 -31 22q-7 11 -7 19q0 2 3 10q29 42 66 86.5t49 44.5q29 0 51 -32q8 -10 8 -18q-2 -6 -15 -17h1z" />
<glyph unicode="&#xff;" horiz-adv-x="401" d="M99 478q8 0 17.5 -14.5t12.5 -28.5q15 -46 56 -191l8 -31.5l8 -34.5t6 -26q19 74 24 96q16 73 29 122l22 92q16 13 39 13q19 0 29 -1q3 0 11.5 -0.5t10.5 -0.5q7 -14 7 -25t-5 -28q-56 -225 -130 -432q-72 -184 -157 -184q-72 0 -84 36l7 31q11 4 38 4t44 7l-1 -1 q17 9 36 54.5t29 94.5l-1 1q-10 13 -21 47q-87 281 -120 373q6 15 24.5 21t60.5 6zM83 625q0 52 50 52q26 0 35 -11.5t8 -38.5q-2 -56 -49 -56q-24 0 -34 13t-10 41zM240 625q0 52 50 52q26 0 35 -11.5t8 -38.5q-2 -56 -49 -56q-24 0 -34 13t-10 41z" />
<glyph unicode="&#x131;" horiz-adv-x="202" d="M137 472q8 -16 8 -71v-340q0 -34 -12 -53q-5 -7 -18 -8.5t-59 -2.5q0 24 0.5 81.5t0.5 89.5v177q0 51 -2 103q11 24 82 24z" />
<glyph unicode="&#x141;" horiz-adv-x="387" d="M237 367l-79 -46v-240q36 -3 85 -3q78 0 124 4q2 -22 2 -38q-7 -37 -38 -45q-40 -2 -101 -2q-95 0 -171 6q-1 5 -2 15t-2 14q-2 18 -4 25v202q-22 -12 -36 -19q-39 68 -12 82l48 29v188q0 57 -2 105q10 13 30 17t69 4q10 -24 10 -76v-178l66 40q21 -36 25 -53.5 t-12 -30.5z" />
<glyph unicode="&#x142;" horiz-adv-x="235" d="M236 367l-83 -49v-181q0 -23 0.5 -66t0.5 -58q-8 -10 -29 -13t-69 -3q-8 28 -8 68v193q-7 -4 -19 -10t-15 -8q-38 68 -12 82q14 9 46 27v216q0 53 -2 111q8 19 31.5 25t67.5 6q8 -26 8 -97v-201l70 42q20 -36 24 -53.5t-11 -30.5z" />
<glyph unicode="&#x152;" horiz-adv-x="782" d="M543 311v-231q30 -3 72 -3q102 0 142 1q-2 -41 -11 -57.5t-29 -21.5q-30 -2 -87 -2q-97 0 -177 6l-3 12q0 1 -2 6t-3 7v20q-57 -60 -163 -60q-134 0 -194.5 86.5t-60.5 252.5q0 209 106 296q61 51 156 51q103 0 156 -53v24l12 6q25 11 45 12h243q-2 -65 -26 -75 q-18 -5 -71 -5h-105v-192h184q-5 -51 -15 -65.5t-34 -14.5h-135zM142 322q0 -129 40 -191.5t106 -62.5q68 0 107 64.5t39 201.5q0 261 -145 261q-65 0 -106 -68t-41 -204v-1z" />
<glyph unicode="&#x153;" horiz-adv-x="702" d="M586 209q-16 -1 -56 -1q-77 0 -110 3q1 -76 28.5 -108.5t79.5 -32.5q60 0 116 30q7 -24 9 -52q-1 -13 -17 -28t-33 -21q-41 -12 -93 -12q-86 0 -145 64q-53 -66 -144 -66q-98 0 -148 59.5t-50 189.5q0 133 71 201q52 49 133 49q97 0 145 -64q50 64 143 64 q75 0 113.5 -45.5t40.5 -121.5q0 -52 -7 -81q-8 -8 -31.5 -16.5t-44.5 -10.5zM224 59q39 0 64 42.5t25 136.5q0 170 -89 170q-41 0 -65.5 -41t-24.5 -130q0 -178 90 -178zM504 409q-71 0 -82 -126q50 -6 101 -6q25 0 35 2q5 7 7 21q0 57 -13.5 83t-47.5 26z" />
<glyph unicode="&#x160;" horiz-adv-x="400" d="M214 677q56 0 92.5 -14.5t46.5 -29.5q0 -23 -17 -49q-9 -6 -19 -6q-11 0 -21 5q-34 16 -73 16q-40 0 -62 -19t-22 -55v-13q5 -33 34 -65q29 -31 75 -74l4 -4q28 -25 56 -55q62 -65 62 -144q0 -85 -52 -135t-148 -50q-97 0 -135 36q-15 14 -15 25q0 27 27 69 q56 -46 120 -46q41 0 65.5 25t24.5 69q0 31 -13.5 56.5t-47.5 56.5q-11 13 -36 38q-1 1 -5.5 5t-7.5 7l-12 12q-54 54 -62 64q-46 58 -46 117q0 66 46.5 112t140.5 46zM194 720l-6 1q-23 16 -100 90l-20 20q6 16 20.5 30t27.5 14q19 0 29 -9h-1q10 -8 47 -45l12 -12 q31 36 62 59h-1q2 2 12 6l11 1q15 -4 27.5 -15t16.5 -21q-43 -50 -101 -106q-10 -13 -36 -13z" />
<glyph unicode="&#x161;" horiz-adv-x="356" d="M188 485q15 0 29 -2q42 -3 67.5 -17.5t29.5 -27.5q0 -26 -20 -51l-20 4q-22 4 -33 8q-22 9 -45 9q-26 0 -41.5 -13t-15.5 -33q0 -25 27 -47l42 -30l31 -23l27 -20q62 -52 62 -112q0 -69 -49.5 -106t-125.5 -37q-49 0 -86.5 13.5t-46.5 34.5q0 27 20 54h10q14 0 30 -9v1 q37 -16 71 -16q6 0 18 2q22 2 35 16.5t13 37.5q0 35 -38 60l-12 8q-29 20 -68 53l-25 20q-46 46 -46 97q0 59 44 92.5t116 33.5zM168 544q-77 87 -107 136q7 12 19 23t22 11t20 -12q44 -52 59 -81q9 15 52 76q16 16 19 16q31 -12 39 -25q-12 -25 -79 -120q-10 -13 -20 -18 q-18 -6 -24 -6z" />
<glyph unicode="&#x178;" horiz-adv-x="472" d="M236 395l120 261q22 8 40 8q15 0 55 -4q3 -9 3 -16t-10 -33l-1 -1l-1 -4q-16 -37 -79 -151q-46 -78 -65 -123q-10 -27 -13 -47v-144q0 -17 0.5 -44t0.5 -37v-46q-9 -11 -27.5 -14.5t-70.5 -3.5q-10 24 -10 49v232q0 17 -1 21q-24 58 -53 113l-17.5 34.5l-21.5 42 l-19 36.5l-62 122q0 7 10.5 9.5t45.5 2.5h58q15 -36 60 -133q36 -84 58 -130zM107 792q0 52 50 52q26 0 35 -11.5t8 -38.5q-2 -56 -49 -56q-24 0 -34 13t-10 41zM274 792q0 52 50 52q26 0 35 -11.5t8 -38.5q-2 -56 -49 -56q-24 0 -34 13t-10 41z" />
<glyph unicode="&#x17d;" horiz-adv-x="477" d="M38 603q1 6 3 16q1 3 1.5 10t2.5 13q8 21 25 24q48 -3 61 -3l304 -3v-12q0 -1 0.5 -5.5t0.5 -6.5q0 -23 -13 -49q-86 -187 -271 -509q57 -2 210 -2q23 0 75 4h7l7 1q4 -18 2 -36q-16 -41 -43 -45q-33 -3 -126 -3q-153 0 -251 4q-13 13 -15 25q0 2 -0.5 4.5t-0.5 3.5v5 q0 1 0.5 3t0.5 3v7q178 297 296 532h-216q-60 0 -60 16v3zM228 715l-6 1q-28 20 -100 90l-20 20q6 16 20.5 30.5t27.5 14.5q18 0 29 -10h-1q9 -7 47 -45l12 -11q33 36 62 58h-1q2 2 12 6l11 1q15 -4 27.5 -15t16.5 -21q-38 -44 -100 -106q-11 -13 -37 -13z" />
<glyph unicode="&#x17e;" horiz-adv-x="388" d="M56 477h4q24 -5 84 -5l201 -3q0 -1 0.5 -6t0.5 -6q1 -2 1 -14q0 -15 -12 -39q-54 -106 -182 -327q26 -1 94 -1q79 0 116 10q0 -28 -3 -43q-6 -32 -25 -39q-27 -5 -112 -5q-139 0 -189 4q-14 16 -16 34q1 12 10 27q2 4 37 60q114 191 159 273h-93q-4 0 -12 -0.5t-11 -0.5 h-21q-61 0 -61 18q6 56 30 63zM181 544q-77 87 -107 136q7 12 19 23t22 11q9 0 20 -12q44 -52 59 -81q9 15 52 76q16 16 19 16q31 -12 39 -25q-12 -25 -79 -120q-10 -13 -20 -18q-18 -6 -24 -6z" />
<glyph unicode="&#x192;" horiz-adv-x="278" d="M173 25q0 -171 -119 -171q-53 0 -90 24q-11 10 -14 18q-1 9 -1 29q0 14 5 39q10 -8 38 -20.5t37 -11.5q15 0 23 13t11 28.5t5 47.5q2 30 2 101v146q0 22 -0.5 63.5t-0.5 64.5q-42 1 -61 16q4 30 9 38t22 13q14 4 30 7q0 44 4 72v-1q4 48 22 82.5t45 52.5t55 25.5t58 7.5 q63 0 87 -28v-13q-2 -12 -6 -22q-6 -14 -11 -19q-12 -7 -23 -3q-4 3 -9 3q-13 4 -37 4q-74 0 -78 -100q-1 -20 -1 -59h43q40 0 66 2q-2 -39 -8 -53t-21 -19l1 1l-6 -3t-5 -2q-19 -2 -71 -2q0 -27 -0.5 -90t-0.5 -98v-183z" />
<glyph unicode="&#x2c6;" horiz-adv-x="398" d="M209 709q74 -80 108 -136q-22 -34 -42 -34q-9 0 -19 12q-42 50 -60 81q-18 -31 -52 -76q-12 -16 -19 -16q-31 12 -39 25q12 25 79 120q11 13 20 18q13 6 24 6z" />
<glyph unicode="&#x2c7;" horiz-adv-x="357" d="M172 545q-77 87 -107 136q7 12 19 23t22 11t20 -12q44 -52 59 -81q9 15 52 76q16 16 19 16q31 -12 39 -25q-12 -25 -79 -120q-10 -13 -20 -18q-18 -6 -24 -6z" />
<glyph unicode="&#x2d8;" horiz-adv-x="441" d="M218 548q-108 2 -141 124q23 30 34 30q8 0 12 -10q18 -42 39.5 -61t55.5 -19q33 0 54.5 19t39.5 61q4 10 12 10q12 0 34 -30q-33 -124 -140 -124z" />
<glyph unicode="&#x2d9;" horiz-adv-x="299" d="M104 630q0 54 50 54q27 0 36 -12t8 -40t-12 -43t-39 -15q-23 0 -33 13.5t-10 42.5z" />
<glyph unicode="&#x2da;" horiz-adv-x="393" d="M102 666q0 41 28.5 70.5t71.5 29.5q42 0 69.5 -29.5t27.5 -68.5q0 -42 -29 -70t-72 -28q-40 0 -68 27t-28 69zM151 667q0 -22 14.5 -37.5t35.5 -15.5q22 0 36 15.5t14 37.5t-14 38t-37 16q-21 0 -35 -16t-14 -38z" />
<glyph unicode="&#x2db;" horiz-adv-x="275" d="M123 -110q0 -20 17 -32t61 -26q13 -3 13 -13q0 -8 -6.5 -19t-16.5 -12q-133 21 -133 102q0 43 36.5 76t126.5 68q10 5 34 -13q-82 -39 -107 -65t-25 -66z" />
<glyph unicode="&#x2dc;" horiz-adv-x="440" d="M169 618q-23 -5 -37 -38q-6 -11 -11 -11q-16 0 -41 25q32 94 98 94q8 0 15 -2t13.5 -6.5t10.5 -8t11.5 -11l10.5 -10.5q16 -16 26 -16q27 0 38 39q4 10 12 10q16 0 34 -30q-5 -34 -30 -62t-61 -28q-12 0 -22 4.5t-14.5 8.5t-14 14.5t-12.5 13.5q-14 14 -26 14z" />
<glyph unicode="&#x2dd;" horiz-adv-x="440" d="M215 721q12 -3 -6 -36l-4 -8q-37 -69 -82 -114q-5 -3 -23 0.5t-25 7.5q8 16 32 69.5t32 69.5q30 14 63 14q10 0 13 -3zM351 721q12 -3 -5 -36l-5 -8q-37 -69 -82 -114q-5 -3 -23 0.5t-24 7.5l29.5 66t33.5 73q30 14 63 14q10 0 13 -3z" />
<glyph unicode="&#x3c0;" horiz-adv-x="654" d="M619 58v1q-2 -24 -32 -45.5t-63 -21.5q-68 0 -95 34t-27 102v306h-184v-292q0 -31 0.5 -73t0.5 -54q-12 -11 -24.5 -13.5t-60.5 -2.5q-12 21 -12 47v388h-41q-26 0 -50 4q-2 8 -2 15q0 22 9 44q3 8 15 20h14q2 0 7 -0.5t8 -0.5q22 -1 538 -1q0 -30 -7 -58q-4 -15 -29 -23 h-86v-308q0 -29 9 -40.5t30 -11.5q31 0 67 19l7 -7q10 -10 8 -28z" />
<glyph unicode="&#x2000;" horiz-adv-x="456" />
<glyph unicode="&#x2001;" horiz-adv-x="912" />
<glyph unicode="&#x2002;" horiz-adv-x="456" />
<glyph unicode="&#x2003;" horiz-adv-x="912" />
<glyph unicode="&#x2004;" horiz-adv-x="304" />
<glyph unicode="&#x2005;" horiz-adv-x="228" />
<glyph unicode="&#x2006;" horiz-adv-x="152" />
<glyph unicode="&#x2007;" horiz-adv-x="152" />
<glyph unicode="&#x2008;" horiz-adv-x="114" />
<glyph unicode="&#x2009;" horiz-adv-x="182" />
<glyph unicode="&#x200a;" horiz-adv-x="50" />
<glyph unicode="&#x2010;" horiz-adv-x="292" d="M220 226h1q-101 -16 -162 -16q-16 0 -32 6q7 75 34 76q64 6 172 20q12 -1 31 -11q-5 -70 -44 -75z" />
<glyph unicode="&#x2011;" horiz-adv-x="292" d="M220 226h1q-101 -16 -162 -16q-16 0 -32 6q7 75 34 76q64 6 172 20q12 -1 31 -11q-5 -70 -44 -75z" />
<glyph unicode="&#x2013;" horiz-adv-x="488" d="M398 211h-388q-1 16 -1 42q1 71 56 71h387v-38q-4 -42 -16.5 -58.5t-37.5 -16.5z" />
<glyph unicode="&#x2014;" horiz-adv-x="817" d="M780 242q-23 -19 -72 -19h-685q0 52 14 62q28 18 75 18h682q-1 -23 -1.5 -31t-3.5 -17t-9 -13z" />
<glyph unicode="&#x2018;" horiz-adv-x="187" d="M140 543v-1q-5 -16 -22 -27.5t-39 -11.5q-12 0 -17 1q-38 6 -38 56q0 10 1 14q4 38 21.5 77t38.5 62q19 19 42 19q20 0 35 -16q-33 -61 -35 -127l3 -3t2 -3q6 -21 7 -31q0 -2 0.5 -5t0.5 -4z" />
<glyph unicode="&#x2019;" horiz-adv-x="187" d="M47 689q7 17 24.5 28.5t38.5 11.5q9 0 15 -2q37 -9 37 -58q0 -9 -1 -12q-4 -37 -21.5 -76.5t-38.5 -61.5q-17 -18 -36 -21q-26 0 -41 16q33 61 35 128l-3 3t-2 3q-6 20 -7 29v12z" />
<glyph unicode="&#x201a;" horiz-adv-x="186" d="M34 86l1 2q7 15 25 27t39 12q9 0 15 -2q38 -7 38 -60q0 -42 -23.5 -89.5t-50.5 -71.5v1q-15 -10 -20 -10q-3 -1 -13 -1q-22 0 -39 13q37 57 41 131q-4 3 -5 6q-6 24 -8 42z" />
<glyph unicode="&#x201c;" horiz-adv-x="342" d="M295 543v-1q-5 -16 -22 -27.5t-39 -11.5q-12 0 -17 1q-38 6 -38 57q0 10 1 13q3 36 20.5 75t38.5 63q18 20 42 20q21 0 36 -16q-33 -58 -36 -127q3 -2 7 -6q5 -18 7 -40zM141 543v-1q-5 -16 -22 -27.5t-39 -11.5q-12 0 -16 1q-39 6 -39 56q0 10 1 14q4 37 21.5 76.5 t38.5 62.5q19 19 42 19q20 0 35 -16q-33 -61 -35 -127q1 -1 2.5 -2t2.5 -2t1 -2q1 -4 3 -15t3 -16q0 -2 0.5 -5t0.5 -4z" />
<glyph unicode="&#x201d;" horiz-adv-x="342" d="M201 686v2q9 34 52 39q4 1 14 1q9 0 12 -1q38 -6 38 -58q0 -9 -1 -12q-4 -36 -22 -75.5t-38 -62.5q-15 -16 -36 -21q-26 0 -41 16q31 57 34 129q-5 5 -7 8q0 4 -1 11t-2 11q0 2 -0.5 6.5t-1.5 6.5zM48 689q7 17 24.5 28.5t38.5 11.5q9 0 15 -2q37 -9 37 -58q0 -9 -1 -12 q-4 -38 -21.5 -77t-38.5 -61q-17 -18 -36 -21q-26 0 -41 16q34 63 36 128q-1 1 -2.5 2t-2.5 2t-1 2q-6 20 -7 29v12z" />
<glyph unicode="&#x201e;" horiz-adv-x="342" d="M35 86l1 2q7 15 25 27t39 12q8 0 14 -2q39 -7 39 -59q0 -41 -23.5 -89t-49.5 -72v1q-16 -11 -20 -11h-12q-22 0 -40 14q40 67 41 128l-6 6q-3 6 -3 8q-3 18 -5 35zM191 64q0 42 28 52v-1l6 3h-3h1q1 0 2 1q17 6 35 6q23 0 35 -17t12 -42q0 -44 -25 -93t-52 -70 q-10 -8 -29 -8q-21 0 -39 14q36 60 40 129q-11 9 -11 26z" />
<glyph unicode="&#x2020;" horiz-adv-x="510" d="M220 595h-3q2 1 5.5 1.5t5.5 0.5q32 6 52 6q12 0 19 -10q4 -7 4 -34q-1 -28 -1 -81v-35q0 -6 -0.5 -15.5t-0.5 -15.5h149q10 0 17 -7q3 -5 3 -11l-2 -10v-2q0 -2 -1 -3q-9 -31 -15 -47l1 1q-4 -9 -19 -11q-32 -1 -133 -1q0 -254 -2 -376q0 -3 -2 -7q-11 -24 -32 -42 t-41 -18q-17 0 -18 10l1 -1q-12 28 -14 103q-1 88 -1 220q0 54 1 78v33h-140q-10 0 -14 4q-6 6 -6 11q2 39 14 65q7 11 19 11h127v168q0 10 16 14z" />
<glyph unicode="&#x2021;" horiz-adv-x="510" d="M193 115h-139q-11 0 -14 3h1q-7 5 -7 11q0 29 17 69q7 7 17 7h125v117q-23 0 -70 0.5t-69 0.5q-14 0 -16 5q-4 2 -4 10q0 32 17 69q6 6 17 6h125v157q0 9 18 13q10 3 13 3q2 0 4 0.5t4 0.5q30 6 47 6q11 0 18 -7q8 -22 8 -40q0 -45 -1 -69q-2 -46 -2 -64h149q16 0 17 -7 q3 -3 3 -11l-3 -11q-8 -36 -14 -49q-2 -12 -18 -12h-65q-14 0 -36.5 -0.5t-32.5 -0.5v-117h149q15 0 17 -7q3 -4 3 -10l-4 -13h1q-7 -32 -14 -47q-2 -10 -18 -12q-34 -1 -134 -1q0 -119 -3 -180q0 -7 -3 -8q-21 -59 -70 -59q-10 0 -19 12q-9 33 -11 92q-3 47 -3 143z" />
<glyph unicode="&#x2022;" horiz-adv-x="247" d="M39 263q0 85 91 85q50 0 66.5 -19.5t15.5 -62.5q-2 -43 -21.5 -66.5t-69.5 -23.5q-44 0 -63 21t-19 66z" />
<glyph unicode="&#x2026;" horiz-adv-x="657" d="M50 54q0 62 68 62q37 0 49.5 -14t11.5 -46t-15.5 -49t-52.5 -17q-34 0 -47.5 15.5t-13.5 48.5zM473 54q0 62 68 62q37 0 49.5 -14t11.5 -46t-15.5 -49t-52.5 -17q-34 0 -47.5 15.5t-13.5 48.5zM259 54q0 62 68 62q37 0 49.5 -14t11.5 -46t-15.5 -49t-52.5 -17 q-34 0 -47.5 15.5t-13.5 48.5z" />
<glyph unicode="&#x202f;" horiz-adv-x="182" />
<glyph unicode="&#x2030;" horiz-adv-x="999" d="M670 164q0 80 38 129.5t110 49.5q68 0 103.5 -41t35.5 -136q0 -83 -36.5 -130.5t-106.5 -47.5t-107 39t-37 137zM372 165q0 80 38.5 129.5t110.5 49.5q67 0 103 -41t36 -136q0 -83 -37 -130.5t-107 -47.5t-107 39t-37 137zM41 480q0 80 37.5 129t109.5 49q68 0 104 -40.5 t36 -135.5q0 -83 -37 -131t-107 -48t-106.5 40t-36.5 137zM162 -29h-3q-8 3 -26 15t-19 21q68 124 386 646q13 18 23 18q8 0 22 -8q25 -16 27 -30l-169.5 -287l-212.5 -349h1q-14 -26 -29 -26zM463 164q0 -111 53 -111q24 0 39 28.5t15 84.5q0 111 -52 111q-55 0 -55 -113z M761 164q0 -111 53 -111q54 0 54 113q0 111 -53 111q-54 0 -54 -113zM132 479q0 -110 52 -110q55 0 55 113q0 111 -53 111q-25 0 -39.5 -29t-14.5 -85z" />
<glyph unicode="&#x2039;" horiz-adv-x="277" d="M25 243l2 2q18 28 79 114l80 113q21 -3 38.5 -20t18.5 -28q0 -21 -44 -87t-70 -98q26 -34 68.5 -99.5t42.5 -85.5q0 -11 -17.5 -29t-39.5 -21q-2 4 -118 168q-6 7 -16.5 22t-14.5 20q-9 20 -9 29z" />
<glyph unicode="&#x203a;" horiz-adv-x="277" d="M251 234l-2 -3q-26 -42 -122 -172l-39 -56q-8 3 -18.5 8.5t-24 18t-13.5 25.5q0 25 108 175q4 6 7 9q-27 37 -69 102t-42 85q0 11 13.5 23t24.5 17.5t21 8.5q22 -37 123 -179l14 -19.5t11 -15.5q8 -18 8 -27z" />
<glyph unicode="&#x2044;" horiz-adv-x="513" d="M67 -39q-2 2 -5 4l-3 2q-30 17 -32 29q61 113 252 433l126 213q13 20 22 20q8 0 22 -9q26 -15 29 -33l-250 -426l-123 -209q-16 -26 -28 -26q-8 0 -10 2z" />
<glyph unicode="&#x205f;" horiz-adv-x="228" />
<glyph unicode="&#x20ac;" horiz-adv-x="475" d="M319 594q38 0 74 -16v1l6 -3q17 -8 27 -7h9q17 22 17 54q-10 19 -48 36.5t-97 17.5q-120 0 -192 -77q-61 -64 -78 -168l-9 -1q-19 -2 -31 -10q-12 -13 -6 -68q33 4 37 4q-1 -7 -1 -42v-30q-17 -2 -30 -10q-12 -13 -6 -68q5 0 20 2l23 3q18 -121 84.5 -174t178.5 -53 q85 0 124 33q23 19 26 48q-2 21 -14 41q-55 -33 -122 -33q-132 0 -163 149q24 3 69 8t69 7q22 2 28 21t3 56q-28 -3 -89 -9t-89 -9v23q0 17 2 49l210 21q22 3 28 22t3 55q-7 -1 -96 -9t-132 -13q34 137 145 148q7 1 20 1z" />
<glyph unicode="&#x2122;" horiz-adv-x="478" d="M222 415l-10 5l11 132q1 14 3.5 41t3.5 39q0 11 -1 16v6q3 6 19 9q2 0 9 0.5t10 0.5h18q12 -23 19 -42q2 -4 5.5 -14.5t5.5 -14.5l5 -12.5t5 -12t2 -6.5l-1 1l5 -18q4 12 7 17q8 22 15 39q18 46 20 52l-1 -2q0 9 13 11q2 0 5 1q3 0 10 0.5t9 0.5h21q4 -11 4 -23 q2 -32 7 -132q4 -45 6 -85q-9 -11 -55 -11q-7 9 -7 23q-1 10 -1 31q0 5 -0.5 16t-0.5 16v39q-2 -6 -3 -8q-6 -11 -7 -17q-20 -54 -22 -59q-13 -5 -18 -5h-25q-2 5 -13 34.5l-17 45.5q-1 -34 -5 -75q-1 -3 -1 -8.5t-1 -8.5q0 -2 -1.5 -8t-1.5 -8q-13 -7 -23 -7h-8 q-2 0 -7 0.5t-8 0.5zM200 618h-48v-144q0 -6 0.5 -15t0.5 -13v-23q-11 -9 -55 -9q-5 13 -5 23v181h-44q-12 0 -27 3v15q1 6 3 16q1 11 17 11h180q0 -18 -3 -30q-3 -11 -19 -15z" />
<glyph unicode="&#x2126;" horiz-adv-x="669" d="M300 1h-255q6 43 14 62t25 19h91q-101 101 -101 254q0 171 67.5 259.5t195.5 88.5q129 0 193 -88t64 -252q0 -162 -104 -262h102q12 -2 31 -11q-5 -64 -44 -70h-212l-5 76q119 30 119 264q0 131 -40.5 195.5t-107.5 64.5t-105.5 -67.5t-38.5 -203.5q0 -106 30.5 -169.5 t84.5 -81.5z" />
<glyph unicode="&#x2206;" horiz-adv-x="583" d="M542 0h-438q-37 0 -60 28.5t-13 61.5q78 254 180 535q9 22 29.5 35.5t45.5 13.5l62 -5q124 -353 214 -649q2 -8 -4 -14t-16 -6zM286 533q-2 4 -3 8q-2 -6 -2 -8h1l-133 -422q-4 -13 2.5 -23.5t18.5 -10.5h258q-1 0 -1 1l-142 456z" />
<glyph unicode="&#x2211;" horiz-adv-x="393" d="M361 79l-30 -80q-52 -2 -138 -2q-95 0 -153 6q-5 23 -8 43v29l188 280l-189 234q0 39 -1 57l28 10q19 6 32 7h269q-2 -40 -7.5 -55t-19.5 -20q-30 -5 -96 -5h-92l182 -228l-184 -276q46 -2 89 -2q90 0 130 2z" />
<glyph unicode="&#x2212;" horiz-adv-x="499" d="M51 228l-10 5q1 38 8 55t25 17h384q-1 -43 -7.5 -60t-26.5 -17h-373z" />
<glyph unicode="&#x221a;" horiz-adv-x="545" d="M137 489l149 -333v-1q0 1 0.5 3t0.5 3l59 513h198q1 -12 1 -19q-2 -33 -12 -46t-31 -13h-73l-77 -594l-62 -7q-38 -4 -59 39q-120 247 -219 496q20 4 26 5q2 1 7 1t7 1q26 4 49.5 -10t35.5 -38z" />
<glyph unicode="&#x221e;" horiz-adv-x="764" d="M539 392q75 0 126.5 -40.5t51.5 -104.5q0 -2 -0.5 -6t-0.5 -6v-10q-6 -60 -53 -91.5t-111 -31.5q-48 0 -86 23.5t-57 65.5l-9 -12q-4 -4 -14.5 -16.5t-15.5 -17.5v1q-53 -58 -140 -58q-76 0 -130.5 42.5t-54.5 115.5q0 43 17 75.5t44.5 50t58 26t63.5 8.5q52 0 95 -26.5 t65 -72.5q40 47 57 59q36 26 94 26zM305 199q20 17 49 63q-45 67 -117 67q-43 0 -70 -23.5t-27 -59.5q0 -31 24.5 -54.5t65.5 -23.5q43 0 75 31zM544 175q35 0 55.5 20t20.5 50q0 28 -20.5 49t-55.5 21q-33 0 -60 -28q-17 -15 -45 -55q43 -57 105 -57z" />
<glyph unicode="&#x222b;" horiz-adv-x="331" d="M174 436q0 -23 -0.5 -108t-0.5 -136v-231q0 -171 -119 -171q-53 0 -90 24q-12 10 -14 18q-1 9 -1 29q0 15 5 38q10 -8 38 -20t37 -11q15 0 23 13t11 28.5t5 47.5q2 30 2 101v193q0 37 -0.5 101t-0.5 84q0 110 4 141v-1q4 48 22 82.5t45.5 52t55 25t57.5 7.5q63 0 81 -20 v1q6 -6 6 -21q-2 -12 -6 -23q-2 -2 -3 -4l1 1q-4 -11 -11 -17q-13 -4 -31 3h2q-10 2 -38 2q-74 0 -78 -99q-2 -42 -2 -130z" />
<glyph unicode="&#x2260;" horiz-adv-x="499" d="M324 323l-77 -113h211q-1 -41 -7.5 -58.5t-26.5 -17.5h-227l-53 -80q-21 -30 -62 -30h-24l73 110h-90q1 41 8 58.5t26 17.5h105l76 113h-215q1 42 7.5 59t26.5 17h231q8 14 28 43.5t29 44.5q12 15 31 15h47l-67 -103h84q-1 -41 -7.5 -58.5t-26.5 -17.5h-100z" />
<glyph unicode="&#x2264;" horiz-adv-x="292" d="M226 445q10 -22 10 -47q-83 -63 -93 -70l95 -68q0 -26 -13 -52q-9 -15 -23 -16q-16 -2 -29 8l-128 95q-13 13 -13 26q0 23 9 35q115 86 125 95q20 15 34 13q18 -3 26 -19zM62 163h-1q91 8 172 19q8 -1 31 -10q-5 -68 -43 -75q-101 -16 -162 -16q-16 0 -32 6q7 76 35 76z " />
<glyph unicode="&#x2265;" horiz-adv-x="292" d="M57 396l-4 4q0 23 12 45q8 16 27 19q14 0 33 -13l125 -95q9 -14 9 -35q0 -12 -18 -30l-123 -91q-13 -10 -28 -8h-1q-14 1 -23 16q-11 17 -11 53l93 67zM26 85q6 41 13.5 59t22.5 19q97 9 171 19q17 -4 31 -10q-3 -68 -43 -75q-101 -16 -161 -16q-13 0 -22 3 q-2 0 -6.5 0.5t-5.5 0.5z" />
<glyph unicode="&#x25ca;" horiz-adv-x="460" d="M413 221q-49 -82 -115 -175q-26 -31 -70 -31l-47 8q-70 91 -128 189h1q-17 28 -17 55q0 31 15 55q42 72 110 168q24 32 70 32l45 -4q75 -98 128 -190q18 -36 18 -69q0 -22 -10 -38zM328 281l-98 169l-97 -166q-8 -13 0 -27l99 -170l96 168q8 13 0 26z" />
<glyph unicode="&#xfb01;" horiz-adv-x="475" d="M385 475l10 -3q9 -18 9 -72v-335q0 -33 -14 -55q-6 -8 -21 -9.5t-72 -3.5v82q0 14 0.5 45t0.5 47v227q-102 -2 -124 -2q0 -165 2 -371q0 -19 -11 -23q-26 -5 -63 -5q-14 0 -31 3q-1 6 -1 27v59q0 9 0.5 29.5t0.5 31.5v121q0 22 -0.5 63.5t-0.5 64.5q-42 1 -61 16 q3 30 8.5 39t21.5 12q6 2 31 7q0 44 4 72v-1q4 48 22 82.5t45 52t54.5 25.5t57.5 8q43 2 95 -16q1 -1 5 -2t5 -2v1q25 -10 32 -18q5 -7 5 -19q-2 -12 -6 -23q-6 -14 -14 -23q-14 0 -35 7l-6 2t-5 1.5t-3 0.5q-37 13 -71 13q-74 0 -79 -100q-1 -20 -1 -59q26 0 78 1t77 1 q43 0 55 1z" />
<glyph unicode="&#xfb02;" horiz-adv-x="467" d="M298 55v472q0 43 -2 99q-23 5 -41 5q-73 0 -78 -100q-1 -20 -1 -59h43q40 0 66 2q-2 -39 -8 -53t-21 -19l1 1q-8 -4 -11 -5q-19 -2 -71 -2q0 -165 2 -371q0 -19 -12 -23q-26 -5 -62 -5q-15 0 -32 3q-1 6 -1 27v59q0 9 0.5 29.5t0.5 31.5v121q0 22 -0.5 63.5t-0.5 64.5 q-42 2 -61 16q3 30 8.5 39t22.5 12q7 2 30 7q0 44 4 72v-1q5 63 36 102.5t66.5 52t77.5 13.5q41 2 96 -17q41 -15 45 -26q7 -22 7 -93v-475v-12.5t7.5 -18.5t21.5 -8q-2 -28 -2 -43q-19 -27 -62 -28q-20 0 -41 14q-28 20 -28 53z" />
<glyph horiz-adv-x="532" d="M136 787q0 52 50 52q26 0 35 -11.5t8 -38.5q-2 -56 -49 -56q-24 0 -34 13t-10 41zM303 787q0 52 50 52q26 0 35 -11.5t8 -38.5q-2 -56 -49 -56q-24 0 -34 13t-10 41z" />
<glyph horiz-adv-x="396" d="M86 620q0 52 50 52q26 0 35 -11.5t8 -38.5q-2 -56 -49 -56q-24 0 -34 13t-10 41zM243 620q0 52 50 52q26 0 35 -11.5t8 -38.5q-2 -56 -49 -56q-24 0 -34 13t-10 41z" />
<glyph horiz-adv-x="532" d="M232 716q-9 3 -17 18.5t-8 21.5q13 16 18 20q32 29 77 58t57 29q13 -2 24 -20t15 -36q0 -9 -14 -16q-24 -11 -79.5 -39.5t-72.5 -35.5z" />
<glyph horiz-adv-x="557" d="M232 780q-23 -5 -37 -38q-5 -11 -11 -11q-16 0 -41 25q32 94 98 94q8 0 15 -2t13.5 -6.5t10.5 -8t11.5 -11l10.5 -10.5q16 -16 26 -16q27 0 38 39q4 10 12 10q16 0 34 -30q-5 -34 -30 -62t-61 -28q-12 0 -22 4.5t-14.5 8.5t-14 14.5t-12.5 13.5q-14 14 -26 14z" />
<glyph horiz-adv-x="395" d="M167 728q-16 0 -33.5 -16.5t-17.5 -30.5q2 -3 11 -12l118 -115q11 2 21 13.5t10 23.5q0 5 -1 8q-90 129 -108 129z" />
<glyph horiz-adv-x="395" d="M93 645q0 42 28.5 71.5t71.5 29.5h1q43 0 71 -30t28 -70q0 -43 -29 -71.5t-72 -28.5q-41 0 -70 28t-29 71zM143 646q0 -23 14.5 -38.5t36.5 -15.5t36 15.5t14 37.5t-14 38.5t-37 16.5q-22 0 -36 -16t-14 -38z" />
</font>
</defs>
</svg>
